<svg width="175" height="31" viewBox="0 0 175 31" fill="none" xmlns="http://www.w3.org/2000/svg">
<path d="M48.3872 0.0594482V30.6701H49.2301V0.0594482" fill="white"/>
<path d="M9.30957 0.17334H14.0267V30.677H9.30957V0.17334Z" fill="white"/>
<path d="M4.49976 30.7184H0V0.183716H4.49976V30.7184Z" fill="white"/>
<path d="M18.9204 13.2007C22.5505 9.5304 32.6621 0.171631 32.6621 0.171631H39.0473L18.9204 19.818V13.2007Z" fill="white"/>
<path d="M26.7917 19.0118L30.6286 15.6575C33.5405 20.5138 36.4364 25.396 39.5996 30.6771H33.6171L26.7917 19.0118Z" fill="white"/>
<path d="M27.7898 30.6753H22.0354L19.5049 26.2178C20.6543 25.182 21.8501 24.1012 23.1795 22.8997C24.6979 25.4375 26.2376 28.0875 27.7898 30.6753Z" fill="white"/>
<path d="M25.6567 0.173354C23.3097 2.44183 21.1712 4.50315 18.9204 6.68013V0.171631L25.6567 0.173354Z" fill="white"/>
<path d="M62.8738 17.4959V0.0938721H67.0225V7.93687L73.9548 0.0938721H78.2567L71.5258 7.86264L78.7112 17.4942H74.3344L69.0719 10.119L67.0225 12.2753V17.4959H62.8738Z" fill="white"/>
<path d="M88.8066 17.6444C87.5975 17.66 86.4016 17.3998 85.3155 16.8848C84.2905 16.3946 83.3736 15.7162 82.6156 14.8874C81.8599 14.0549 81.2679 13.0952 80.8692 12.0561C80.4588 11.0082 80.2486 9.89671 80.249 8.77593C80.2509 6.51469 81.1212 4.33501 82.6905 2.66105C83.4628 1.84903 84.3914 1.19103 85.4242 0.724039C86.5052 0.236164 87.6853 -0.011003 88.8779 0.000680529C90.0872 -0.0151585 91.2833 0.245691 92.369 0.76202C93.3952 1.25306 94.311 1.93603 95.0635 2.77154C95.8157 3.6086 96.4028 4.57238 96.7957 5.61491C97.1968 6.64762 97.4039 7.74158 97.4069 8.84499C97.4017 11.1034 96.5368 13.2806 94.9779 14.9599C94.2104 15.7742 93.2868 16.4362 92.2585 16.909C91.1802 17.4041 89.9999 17.6556 88.8066 17.6444ZM84.4797 8.82082C84.4784 9.48028 84.5769 10.1364 84.7719 10.7682C84.9502 11.3696 85.2322 11.9376 85.606 12.448C85.9641 12.9349 86.4314 13.3368 86.9728 13.6236C87.5498 13.9253 88.1974 14.0775 88.8529 14.0656C89.5176 14.0808 90.1739 13.9196 90.7508 13.5995C91.2857 13.2943 91.7474 12.8824 92.1052 12.391C92.4748 11.8778 92.7487 11.3057 92.9143 10.7009C93.0933 10.0716 93.1839 9.42177 93.1834 8.76903C93.1852 8.10964 93.0874 7.45356 92.8929 6.82166C92.7138 6.22168 92.4266 5.6571 92.0446 5.15396C91.6809 4.679 91.2152 4.28613 90.6796 4.00246C90.1113 3.70925 89.4753 3.56129 88.8315 3.57259C88.1685 3.55769 87.5133 3.71443 86.9336 4.02663C86.3996 4.32413 85.9382 4.72988 85.581 5.21611C85.2083 5.72502 84.9297 6.29283 84.7577 6.89417C84.5727 7.52068 84.4791 8.16918 84.4797 8.82082Z" fill="white"/>
<path d="M101.103 17.4959V0.0938721H105.248V13.9672H113.952V17.4959H101.103Z" fill="white"/>
<path d="M124.81 17.6444C123.6 17.6602 122.404 17.4 121.317 16.8848C120.294 16.3936 119.379 15.7154 118.623 14.8874C117.868 14.0544 117.277 13.0949 116.878 12.0561C116.468 11.0082 116.257 9.89674 116.258 8.77597C116.256 7.64386 116.475 6.52161 116.903 5.4682C117.315 4.43182 117.924 3.47962 118.699 2.66108C119.471 1.84948 120.399 1.19152 121.431 0.724072C122.512 0.236531 123.692 -0.0106193 124.885 0.000713521C126.094 -0.0155168 127.29 0.245353 128.376 0.762053C129.403 1.25348 130.319 1.93638 131.072 2.77158C131.825 3.60863 132.412 4.57241 132.804 5.61494C133.201 6.64852 133.405 7.74231 133.405 8.84502C133.4 11.1034 132.535 13.2806 130.976 14.9599C130.209 15.7742 129.285 16.4362 128.257 16.909C127.18 17.4034 126.002 17.6549 124.81 17.6444ZM120.483 8.82085C120.481 9.48023 120.579 10.1363 120.774 10.7682C120.953 11.3695 121.236 11.9373 121.609 12.448C121.967 12.9344 122.434 13.3362 122.974 13.6237C123.553 13.9257 124.203 14.0779 124.86 14.0656C125.524 14.0818 126.181 13.9219 126.758 13.603C127.293 13.2982 127.754 12.8862 128.11 12.3945C128.481 11.8814 128.755 11.3093 128.921 10.7043C129.099 10.0736 129.188 9.42275 129.187 8.76906C129.188 8.10974 129.09 7.45377 128.896 6.82169C128.717 6.22171 128.43 5.65713 128.048 5.15399C127.684 4.67857 127.218 4.28564 126.681 4.00249C126.114 3.70928 125.478 3.56131 124.835 3.57262C124.172 3.55772 123.517 3.71446 122.937 4.02666C122.403 4.3244 121.941 4.73009 121.583 5.21615C121.211 5.72555 120.933 6.29323 120.761 6.8942C120.576 7.52071 120.483 8.16921 120.483 8.82085Z" fill="white"/>
<path d="M141.255 7.54498V17.4959H137.106V0.0938721H140.344L148.72 10.3158V0.0938721H152.871V17.4959H149.529L141.255 7.54498Z" fill="white"/>
<path d="M155.802 17.4959L162.71 0.0938721H166.074L172.957 17.4959H168.555L167.163 13.6029H161.571L160.206 17.4994L155.802 17.4959ZM164.379 4.35979L162.228 10.8303H166.454L164.379 4.35979Z" fill="white"/>
<path d="M62.1075 27.4021C62.1086 26.9697 62.1876 26.5409 62.3409 26.1349C62.4927 25.7244 62.7224 25.345 63.0181 25.0162C63.3206 24.6828 63.689 24.4116 64.1016 24.2186C64.559 24.0085 65.0604 23.9039 65.5665 23.913C66.1542 23.899 66.7341 24.0456 67.2399 24.336C67.6909 24.5982 68.0533 24.9822 68.2824 25.4409L67.2042 26.1591C67.1311 25.9761 67.0243 25.8077 66.8888 25.6619C66.7676 25.5326 66.6249 25.424 66.4665 25.3408C66.3177 25.2631 66.1589 25.205 65.9942 25.1681C65.8406 25.1327 65.6834 25.1142 65.5255 25.1129C65.2202 25.1065 64.9184 25.178 64.6505 25.32C64.4048 25.4536 64.1915 25.6367 64.025 25.8569C63.8555 26.0836 63.7283 26.3371 63.649 26.6062C63.5655 26.8762 63.5229 27.1565 63.5224 27.4383C63.5212 27.7415 63.5706 28.0429 63.6686 28.3309C63.7609 28.6041 63.902 28.8594 64.0856 29.0853C64.2633 29.2981 64.4833 29.4742 64.7325 29.6032C64.9855 29.7349 65.2686 29.8025 65.5558 29.8C65.7169 29.7998 65.8773 29.78 66.0334 29.7413C66.1998 29.7007 66.3594 29.6373 66.5074 29.5532C66.6643 29.4641 66.8066 29.353 66.9298 29.2234C67.0636 29.0803 67.1704 28.9155 67.2452 28.7366L68.3947 29.3771C68.2867 29.636 68.1254 29.871 67.9206 30.0676C67.7099 30.2697 67.4698 30.4407 67.2078 30.5752C66.944 30.7127 66.6639 30.8187 66.3738 30.8911C66.0909 30.9624 65.8 30.999 65.5077 30.9999C65.0288 31.0049 64.5559 30.8965 64.1301 30.6839C63.7198 30.4786 63.3538 30.1991 63.052 29.8604C62.443 29.1734 62.1057 28.299 62.1003 27.3934L62.1075 27.4021Z" fill="white"/>
<path d="M80.4165 30.948L83.2678 23.9526H84.3977L87.249 30.948H85.7627L85.1016 29.2043H82.5639L81.9028 30.948H80.4165ZM83.8345 25.4235L82.7938 28.2479H84.8378L83.8345 25.4235Z" fill="white"/>
<path d="M99.8164 30.948V23.9613H102.876C103.195 23.9582 103.511 24.0274 103.798 24.1633C104.073 24.2931 104.32 24.4737 104.525 24.695C104.728 24.9157 104.891 25.1693 105.004 25.4443C105.118 25.7115 105.179 25.9975 105.182 26.2867C105.182 26.5817 105.127 26.8743 105.018 27.1499C104.914 27.4232 104.759 27.6755 104.56 27.894C104.361 28.1114 104.119 28.2876 103.847 28.4119C103.562 28.5447 103.248 28.612 102.931 28.6087H101.222V30.9532L99.8164 30.948ZM101.219 27.4141H102.846C102.971 27.4153 103.094 27.3884 103.207 27.3353C103.319 27.2823 103.417 27.2046 103.493 27.1085C103.677 26.8708 103.768 26.578 103.751 26.2815C103.754 26.1188 103.727 25.9569 103.671 25.8033C103.622 25.6724 103.55 25.5509 103.457 25.4443C103.373 25.3482 103.267 25.272 103.147 25.2215C103.035 25.1742 102.913 25.149 102.791 25.1473H101.224L101.219 27.4141Z" fill="white"/>
<path d="M117.931 30.948V23.9613H119.335V30.948H117.931Z" fill="white"/>
<path d="M138.038 25.1439H135.74V30.948H134.335V25.1439H132.019V23.9613H138.038V25.1439Z" fill="white"/>
<path d="M150.014 30.948L152.865 23.9526H154.004L156.843 30.948H155.358L154.697 29.2043H152.16L151.498 30.948H150.014ZM153.432 25.4235L152.395 28.2513H154.433L153.432 25.4235Z" fill="white"/>
<path d="M169.412 30.948V23.9613H170.816V29.7654H174.498V30.9567L169.412 30.948Z" fill="white"/>
</svg>
