<svg width="1280" height="1031" viewBox="0 0 1280 1031" fill="none" xmlns="http://www.w3.org/2000/svg">
<rect width="1280" height="1031" fill="black"/>
<mask id="mask0" style="mask-type:alpha" maskUnits="userSpaceOnUse" x="0" y="0" width="1280" height="1031">
<rect width="1280" height="1031" fill="black"/>
</mask>
<g mask="url(#mask0)">
<g opacity="0.4">
<path d="M288.675 1045.63C289.85 1029.24 315.164 1019.39 330.433 1013C345.703 1006.61 362.636 1006.74 378.721 1008.73C420.036 1013.82 458.578 1030.2 498.658 1040.71C538.737 1051.21 583.265 1055.36 621.572 1036.91C681.432 1008.07 705.632 936.769 729.944 874.808C736.291 858.623 743.569 841.839 757.007 830.56C774.137 816.152 798.459 813.643 819.615 818.473C840.772 823.302 859.61 834.473 878.327 845.129C938.612 879.361 1004.25 910.022 1074.75 908.975C1145.25 907.929 1249.57 861.085 1293.07 747.326" stroke="white" stroke-width="0.71" stroke-miterlimit="10"/>
<path d="M302.243 1046.37C303.433 1029.99 316.621 1015.8 331.891 1009.41C347.161 1003.02 364.093 1003.15 380.179 1005.14C421.494 1010.23 460.036 1026.62 500.129 1037.1C540.222 1047.59 584.722 1051.77 623.043 1033.31C682.89 1004.48 707.105 933.194 731.416 871.233C737.748 855.034 745.042 838.264 758.465 826.971C775.61 812.577 799.932 810.068 821.088 814.897C842.245 819.727 861.083 830.897 879.8 841.554C940.085 875.786 1005.73 906.446 1076.21 905.386C1146.69 904.326 1251.1 857.419 1294.55 743.722" stroke="white" stroke-width="0.71" stroke-miterlimit="10"/>
<path opacity="0.98" d="M1296.3 747.706C1270.76 810.604 1224.99 851.049 1176.95 874.212C1142.67 890.726 1107.38 898.381 1077.66 898.451C1050.46 898.308 1023.4 894.455 997.237 886.998C987.113 884.22 977.091 881.015 967.223 877.51C944.222 869.233 921.756 859.542 899.951 848.493C893.638 845.357 887.383 842.153 881.187 838.883C868.156 832.037 855.045 824.849 841.194 819.84C835.504 817.762 829.66 816.134 823.715 814.97C813.459 813.026 802.947 812.826 792.624 814.377C781.224 815.817 770.388 820.173 761.163 827.024C757.764 829.721 754.668 832.778 751.928 836.142C744.138 845.627 738.839 857.295 734.056 868.653C729.273 880.011 724.536 891.627 719.525 903.247C706.763 932.84 692.389 962.163 671.83 985.825C658.679 1001.38 642.388 1013.97 624.026 1022.78C611.697 1028.5 598.597 1032.37 585.143 1034.28C557.019 1038.46 528.085 1035.22 501.12 1029.11C474.155 1023 447.407 1014.03 420.05 1007.69C407.424 1004.67 394.621 1002.44 381.717 1001.03C365.581 999.37 348.576 999.453 333.192 1005.88C317.809 1012.3 304.435 1026.3 302.764 1042.42" stroke="white" stroke-width="0.71" stroke-miterlimit="10"/>
<path opacity="0.95" d="M1298.55 750.194C1272.86 809.667 1227.3 847.07 1179.18 868.34C1144.93 883.49 1109.6 890.409 1079.58 890.079C1052.2 889.627 1024.98 885.789 998.539 878.652C988.336 875.995 978.223 872.956 968.301 869.729C945.512 862.257 923.167 853.496 901.372 843.487C895.126 840.626 888.959 837.716 882.87 834.757C870.041 828.55 857.224 822.082 843.705 817.717C838.11 815.865 832.372 814.476 826.549 813.565C816.321 812.057 805.922 812.116 795.711 813.738C784.123 815.549 773.083 819.062 764.124 825.567C760.739 828.044 757.646 830.898 754.907 834.075C747.107 842.981 741.776 853.941 736.974 864.576C732.172 875.211 727.305 886.169 722.235 897.14C709.342 924.96 694.809 952.541 673.825 975.043C650.967 1000.45 620.042 1017.19 586.271 1022.44C558.121 1027.09 529.402 1024.69 502.663 1019.59C475.925 1014.49 449.465 1006.59 422.176 1001.07C409.507 998.445 396.696 996.555 383.808 995.41C367.607 994.077 350.544 994.382 335.032 1000.83C319.519 1007.27 305.943 1021.07 303.793 1036.96" stroke="white" stroke-width="0.7" stroke-miterlimit="10"/>
<path opacity="0.93" d="M1301.34 751.357C1275.46 807.38 1230.13 841.695 1181.94 861.101C1147.74 874.886 1112.38 880.966 1082.03 880.339C1054.48 879.534 1027.1 875.71 1000.39 868.938C990.091 866.388 979.903 863.527 969.941 860.565C947.368 853.891 925.158 846.052 903.397 837.079C897.245 834.545 891.243 831.87 885.204 829.3C872.635 823.728 860.055 818.011 846.804 814.18C841.326 812.573 835.725 811.423 830.058 810.739C819.836 809.702 809.521 810.048 799.392 811.77C787.693 813.646 776.612 816.771 767.65 822.784C764.299 825.056 761.213 827.695 758.448 830.653C750.681 838.963 745.275 849.232 740.374 859.236C735.472 869.24 730.588 879.503 725.511 889.707C712.46 915.813 697.759 941.507 676.372 962.949C662.225 977.366 645.541 989.051 627.157 997.42C614.611 1002.95 601.434 1006.93 587.92 1009.26C559.658 1014.41 531.212 1012.85 504.729 1008.76C478.245 1004.67 452.006 997.921 424.84 993.156C412.131 990.915 399.311 989.351 386.436 988.469C370.198 987.458 353.047 987.985 337.422 994.468C321.796 1000.95 308.005 1014.56 305.388 1030.18" stroke="white" stroke-width="0.69" stroke-miterlimit="10"/>
<path opacity="0.9" d="M1304.59 751.243C1278.55 803.857 1233.48 835.054 1185.16 852.614C1153.09 864.382 1119.1 870.053 1084.95 869.336C1057.23 868.215 1029.68 864.4 1002.7 857.946C992.328 855.546 982.05 852.851 972.061 850.136C948.352 843.751 926.502 836.983 905.947 829.418C899.897 827.182 893.93 824.901 888.048 822.576C875.684 817.701 863.395 812.646 850.58 809.495C845.21 808.139 839.736 807.237 834.216 806.797C824.023 806.226 813.798 806.85 803.75 808.656C791.952 810.582 780.847 813.331 771.892 818.808C768.577 820.881 765.515 823.336 762.77 826.121C755.005 833.807 749.554 843.384 744.594 852.74C739.635 862.096 734.674 871.64 729.484 881.228C716.29 905.605 701.372 929.56 679.632 949.822C664.958 963.617 648.046 974.816 629.618 982.941C616.922 988.411 603.662 992.468 590.078 995.036C561.768 1000.55 533.602 999.935 507.286 996.839C480.97 993.742 455.178 988.06 427.956 984.197C415.452 982.461 402.652 981.063 389.541 980.453C373.253 979.778 356.059 980.512 340.304 987.018C324.55 993.524 310.571 1006.94 307.474 1022.3" stroke="white" stroke-width="0.69" stroke-miterlimit="10"/>
<path opacity="0.88" d="M1308.37 750.037C1282.17 799.227 1237.4 827.318 1188.91 842.991C1156.51 853.573 1122.52 858.404 1088.45 857.266C1060.56 855.818 1032.85 852.011 1005.6 845.887C995.146 843.609 984.764 841.094 974.707 838.674C950.866 832.906 929.248 827.238 908.933 820.672C902.98 818.748 897.111 816.76 891.343 814.78C879.379 810.261 867.127 806.542 854.67 803.646C849.408 802.541 844.062 801.887 838.689 801.691C828.542 801.577 818.408 802.462 808.434 804.332C796.54 806.337 785.435 808.652 776.41 813.713C773.106 815.566 770.03 817.797 767.243 820.362C759.496 827.439 753.985 836.339 748.897 845.065C743.81 853.792 738.843 862.598 733.594 871.509C720.256 894.156 705.207 916.338 683.028 935.455C667.849 948.622 650.725 959.361 632.262 967.291C619.44 972.696 606.112 976.811 592.475 979.576C565.343 984.918 537.581 986.303 510.052 983.687C483.957 981.518 458.544 976.956 431.421 973.941C418.975 972.636 406.134 971.501 393.004 971.255C376.68 970.901 359.466 971.781 343.515 978.387C327.564 984.993 313.399 998.219 309.89 1013.27" stroke="white" stroke-width="0.68" stroke-miterlimit="10"/>
<path opacity="0.85" d="M1312.72 747.865C1286.28 793.564 1241.86 818.618 1193.25 832.444C1160.51 841.789 1126.47 845.746 1092.45 844.162C1064.39 842.387 1036.5 838.593 1008.98 832.81C998.431 830.64 987.974 828.304 977.848 826.149C953.904 821.026 932.511 816.342 912.426 810.848C906.552 809.237 900.806 807.575 895.145 805.906C883.411 802.067 871.436 799.007 859.299 796.746C854.139 795.891 848.915 795.481 843.684 795.52C833.577 795.918 823.515 797.103 813.591 799.064C801.599 801.118 790.346 803.168 781.438 807.598C778.152 809.243 775.071 811.271 772.26 813.639C764.544 820.091 758.987 828.298 753.881 836.302C748.774 844.305 743.695 852.495 738.359 860.76C724.932 881.617 709.637 902.061 687.079 920.059C671.407 932.583 654.068 942.865 635.562 950.611C622.602 955.946 609.195 960.121 595.498 963.089C568.591 968.877 541.033 971.058 513.551 969.574C487.609 968.408 462.455 964.916 435.313 962.7C422.832 961.744 410.016 960.985 396.813 960.946C380.498 960.954 363.145 962.147 347.072 968.645C330.998 975.144 316.695 988.248 312.651 1003.11" stroke="white" stroke-width="0.68" stroke-miterlimit="10"/>
<path opacity="0.83" d="M1317.54 744.749C1290.98 787.051 1246.82 808.987 1198.06 820.939C1164.99 829.055 1130.9 832.177 1096.91 830.203C1068.68 828.107 1040.6 824.32 1012.82 818.862C1002.18 816.828 991.65 814.671 981.468 812.767C957.407 808.274 936.161 804.726 916.493 800.276C910.727 798.977 905.065 797.642 899.507 796.271C888.043 793.093 876.386 790.656 864.609 788.976C859.555 788.385 854.459 788.223 849.377 788.492C839.359 789.371 829.397 790.8 819.536 792.772C807.477 794.904 796.208 796.505 787.227 800.491C783.983 801.941 780.919 803.763 778.096 805.921C770.321 811.696 764.766 819.28 759.615 826.619C754.465 833.959 749.326 841.472 743.927 849.002C730.302 868.191 714.898 886.773 691.932 903.625C675.785 915.497 658.234 925.332 639.679 932.907C626.584 938.153 613.107 942.388 599.366 945.575C572.627 951.804 545.235 954.791 517.782 954.47C492.08 954.303 467.212 951.85 440.191 950.582C427.733 949.972 414.884 949.592 401.639 949.788C385.212 950.079 367.801 951.493 351.675 958.082C335.55 964.67 321.083 977.496 316.443 992.105" stroke="white" stroke-width="0.67" stroke-miterlimit="10"/>
<path opacity="0.8" d="M1322.87 740.832C1296.15 779.725 1252.29 798.612 1203.37 808.634C1170.03 815.492 1135.92 817.756 1101.97 815.364C1073.45 813.167 1045.03 808.992 1017.27 804.034C1006.56 802.122 995.919 800.145 985.696 798.504C961.518 794.643 940.458 792.154 921.107 788.77C915.428 787.765 909.873 786.741 904.443 785.7C893.174 783.233 881.757 781.497 870.265 780.502C865.316 780.173 860.349 780.25 855.413 780.732C846.736 781.64 836.827 783.861 825.787 785.853C813.616 788.05 802.32 789.247 793.323 792.756C790.104 794 787.041 795.613 784.193 797.562C777.063 802.803 770.794 809.124 765.612 816.297C760.398 822.902 755.173 829.769 749.746 836.649C735.948 854.11 720.397 870.905 697.021 886.61C680.404 897.809 662.634 907.196 644.017 914.609C630.797 919.792 617.247 924.087 603.456 927.467C576.89 934.08 549.69 937.815 522.325 938.607C496.893 939.466 472.269 938.068 445.319 937.651C432.874 937.461 420.098 937.307 406.747 937.872C390.268 938.471 372.8 940.106 356.545 946.718C340.29 953.33 325.509 965.988 320.491 980.375" stroke="white" stroke-width="0.67" stroke-miterlimit="10"/>
<path opacity="0.78" d="M1328.73 736.256C1301.83 771.712 1258.35 787.502 1209.21 795.669C1175.6 801.236 1141.44 802.657 1107.49 799.899C1078.85 797.377 1050.17 793.19 1022.24 788.621C1011.44 786.83 1000.71 785.019 990.452 783.67C966.124 780.412 945.266 778.997 926.246 776.663C920.666 775.99 915.267 775.202 909.876 774.531C898.843 772.752 887.708 771.68 876.539 771.319C871.712 771.25 866.888 771.57 862.112 772.275C853.592 773.593 843.822 776.152 832.684 778.194C820.43 780.455 809.096 781.292 800.152 784.304C796.96 785.357 793.899 786.77 791.027 788.517C783.97 793.097 777.667 798.745 772.343 805.259C767.116 811.227 761.741 817.365 756.298 823.579C740.956 841.385 722.921 856.68 702.847 868.908C685.775 879.404 667.793 888.345 649.12 895.622C635.742 900.747 622.091 905.124 608.228 908.734C581.793 915.765 554.756 920.297 527.473 922.269C502.295 924.111 477.932 923.812 451.037 924.231C438.633 924.429 425.753 924.674 412.428 925.426C395.928 926.359 378.373 928.217 361.989 934.852C345.606 941.487 330.638 953.954 325.167 968.053" stroke="white" stroke-width="0.66" stroke-miterlimit="10"/>
<path opacity="0.76" d="M1335.11 731.109C1308.03 763.143 1264.93 775.866 1215.57 782.135C1181.72 786.423 1147.5 786.989 1113.53 783.821C1084.72 780.991 1055.85 776.802 1027.61 772.53C1016.71 770.874 1005.97 769.296 995.596 768.143C971.166 765.53 950.479 765.162 931.775 763.894C926.313 763.531 920.964 763.132 915.728 762.696C904.933 761.59 894.078 761.162 883.229 761.414C878.496 761.632 873.787 762.215 869.144 763.159C860.78 764.857 851.134 767.771 839.942 769.874C827.577 772.2 816.203 772.649 807.194 775.115C804.044 775.983 800.995 777.185 798.1 778.702C791.123 782.643 784.788 787.627 779.315 793.48C773.984 798.76 768.611 804.274 763.063 809.771C747.079 825.879 728.838 839.578 708.912 850.438C691.402 860.249 673.208 868.786 654.47 875.981C640.914 881.125 626.998 885.408 613.382 889.193C587.081 896.605 560.229 901.901 533.083 905.031C508.175 907.869 484.071 908.64 457.231 909.895C444.799 910.559 431.906 911.037 418.554 912.037C401.989 913.293 384.361 915.359 367.877 922.015C351.394 928.671 336.21 940.95 330.258 954.791" stroke="white" stroke-width="0.65" stroke-miterlimit="10"/>
<path opacity="0.73" d="M1342.03 725.536C1314.8 754.146 1272.06 763.816 1222.47 768.173C1188.41 771.154 1154.15 770.89 1120.15 767.386C1091.22 764.23 1062.12 760.057 1033.63 756.119C1022.62 754.631 1011.79 753.132 1001.36 752.315C976.825 750.318 956.349 750.949 937.952 750.82C932.559 750.772 927.299 750.695 922.172 750.59C911.605 750.174 901.023 750.42 890.487 751.327C885.861 751.805 881.275 752.622 876.768 753.771C868.577 755.893 859.056 759.161 847.766 761.314C835.304 763.719 823.875 763.766 814.891 765.737C811.782 766.408 808.749 767.395 805.841 768.684C798.945 771.982 792.583 776.296 786.968 781.483C781.565 786.101 776.077 790.97 770.524 795.729C753.886 810.082 735.435 822.188 715.644 831.734C697.688 840.793 679.251 848.864 660.415 855.91C646.738 860.974 632.724 865.308 619.065 869.328C592.868 877.121 566.187 883.181 539.195 887.47C514.526 891.307 490.699 893.189 463.915 895.282C451.533 896.261 438.639 897.173 425.247 898.437C408.644 900.014 390.945 902.317 374.319 909.011C357.693 915.705 342.336 927.778 335.904 941.361" stroke="white" stroke-width="0.65" stroke-miterlimit="10"/>
<path opacity="0.71" d="M1349.61 719.73C1322.15 744.878 1279.84 751.55 1229.97 753.925C1195.73 755.61 1161.42 754.515 1127.35 750.65C1098.29 747.185 1068.88 742.931 1040.23 739.395C1029.22 737.907 1018.16 736.669 1007.76 736.126C983.112 734.759 962.799 736.539 944.742 737.387C939.441 737.637 934.282 737.848 929.283 738.063C918.95 738.315 908.643 739.221 898.425 740.774C893.916 741.533 889.465 742.603 885.103 743.974C875.687 747.347 866.072 750.137 856.314 752.329C843.754 754.784 832.315 754.469 823.228 755.969C820.135 756.464 817.096 757.252 814.154 758.324C807.407 761.003 801.075 764.628 795.348 769.089C789.886 773.03 784.377 777.148 778.711 781.29C764.355 791.848 748.183 801.468 723.117 812.648C707.27 819.726 688.322 827.893 667.15 835.525C653.353 840.511 639.242 844.923 625.552 849.133C599.426 857.319 572.897 864.159 546.069 869.627C521.669 874.459 498.086 877.398 471.432 880.366C459.062 881.736 446.16 882.967 432.714 884.51C416.046 886.411 398.289 888.934 381.55 895.665C364.81 902.396 349.123 914.288 342.227 927.655" stroke="white" stroke-width="0.64" stroke-miterlimit="10"/>
<path opacity="0.68" d="M1357.84 713.81C1330.26 735.561 1288.3 739.18 1238.31 739.593C1203.92 739.938 1169.55 737.983 1135.42 733.743C1106.19 729.883 1076.67 725.781 1047.69 722.498C1036.55 721.222 1025.48 720.115 1015 719.795C990.216 719.074 970.089 721.914 952.363 723.813L937.213 725.439C927.114 726.367 917.083 727.931 907.181 730.124C902.792 731.153 898.475 732.465 894.255 734.051C885.003 737.927 875.432 740.995 865.651 743.22C853.008 745.738 841.531 745.064 832.507 745.995C829.444 746.315 826.414 746.899 823.451 747.739C816.715 749.829 810.289 752.813 804.346 756.612C798.767 759.879 793.326 763.268 787.546 766.795C773.018 775.626 756.668 783.432 731.183 793.538C715.084 799.879 695.832 807.617 674.465 815.132C660.546 820.039 646.339 824.53 632.605 828.946C603.575 838.258 577.695 845.899 553.55 851.744C529.406 857.588 506.081 861.596 479.425 865.405C467.049 867.123 454.157 868.716 440.699 870.52C423.994 872.742 406.097 875.55 389.282 882.243C372.468 888.935 356.602 900.752 349.223 913.832" stroke="white" stroke-width="0.64" stroke-miterlimit="10"/>
<path opacity="0.66" d="M1366.74 707.874C1339 726.2 1297.43 726.838 1247.08 725.391C1212.54 724.45 1178.08 721.688 1143.84 717.115C1114.42 713.094 1084.72 708.83 1055.5 705.882C1044.27 704.743 1033.11 703.801 1022.59 703.744C997.673 703.67 977.761 707.568 960.336 710.519C955.181 711.44 950.278 712.228 945.509 713.08C935.644 714.687 925.89 716.911 916.303 719.738C912.028 721.058 907.83 722.618 903.731 724.411C894.68 728.788 885.166 732.135 875.368 734.389C862.614 736.973 851.097 735.91 842.054 736.335C838.997 736.454 835.954 736.815 832.953 737.416C826.301 738.919 819.86 741.239 813.777 744.323C808.167 746.911 802.539 749.675 796.754 752.463C782.082 759.564 765.616 765.61 739.718 774.513C723.397 780.114 703.903 787.477 682.235 794.838C668.195 799.666 653.905 804.22 640.11 808.8C610.953 818.599 585.376 827.104 561.442 833.949C537.292 840.815 512.787 846.366 488.036 850.576C475.717 852.725 462.771 854.597 449.272 856.665C432.517 859.223 414.583 862.135 397.68 869.022C380.777 875.908 364.738 887.302 356.863 900.111" stroke="white" stroke-width="0.63" stroke-miterlimit="10"/>
<path opacity="0.63" d="M1376.32 702.081C1348.4 716.956 1307.25 714.625 1256.68 711.135C1223.84 708.876 1187.32 705.426 1153.15 700.343C1123.66 695.964 1093.68 691.748 1064.21 689.15C1053.2 688.018 1042.13 687.493 1031.06 687.577C1006.09 688.159 986.292 693.078 969.213 697.093C964.181 698.267 959.323 699.448 954.639 700.637C945.006 702.911 935.528 705.794 926.26 709.269C922.532 710.733 918.488 712.465 914.084 714.669C905.236 719.545 895.759 723.18 885.921 725.475C873.084 728.122 861.542 726.684 852.388 726.522C849.372 726.504 846.359 726.68 843.366 727.047C836.792 727.981 830.338 729.618 824.113 731.93C818.446 733.87 812.759 735.957 806.913 738.039C792.097 743.411 775.484 747.67 749.161 755.412C732.619 760.304 712.744 767.17 690.971 774.466C676.794 779.202 662.393 783.822 648.63 788.674C619.455 798.866 594.099 808.297 570.406 816.141C546.5 824.102 522.138 830.622 497.452 835.665C485.158 838.19 472.192 840.425 458.652 842.727C441.862 845.636 423.93 848.794 406.846 855.577C389.762 862.359 373.559 873.691 365.235 886.269" stroke="white" stroke-width="0.63" stroke-miterlimit="10"/>
<path opacity="0.61" d="M1386.57 696.49C1358.48 707.957 1317.73 702.657 1266.93 697.168C1234.24 693.653 1197.63 689.398 1163.08 683.876C1133.43 679.189 1103.26 674.971 1073.53 672.694C1062.44 671.673 1051.3 671.336 1040.17 671.687C1015.02 672.846 995.481 678.893 978.704 683.959C973.788 685.444 969.033 686.933 964.464 688.395C955.072 691.339 945.879 694.881 936.94 698.999C933.344 700.715 929.419 702.713 925.117 705.143C916.497 710.507 907.062 714.435 897.182 716.774C884.263 719.484 872.667 717.673 863.6 717.071C860.597 716.88 857.587 716.847 854.58 716.973C848.039 717.367 841.547 718.359 835.186 719.938C829.459 721.201 823.698 722.597 817.808 724.016C802.833 727.645 786.088 730.13 759.329 736.757C742.548 740.897 722.356 747.349 700.339 754.458C686.043 759.144 671.544 763.813 657.746 768.799C628.467 779.389 603.39 789.743 580.023 798.58C556.414 807.625 532.239 815.116 507.653 821.007C495.41 823.875 482.396 826.476 468.831 829.055C451.974 832.258 433.941 835.655 416.702 842.492C399.462 849.328 383.1 860.439 374.294 872.759" stroke="white" stroke-width="0.62" stroke-miterlimit="10"/>
<path opacity="0.59" d="M1397.53 691.272C1369.27 699.302 1328.96 691.017 1277.85 683.549C1245.31 678.778 1208.51 673.593 1173.71 667.769C1143.86 662.526 1113.76 658.793 1083.54 656.585C1072.37 655.677 1061.15 655.534 1049.97 656.157C1024.7 657.946 1005.33 665.04 988.883 671.157C984.062 672.969 979.399 674.755 974.953 676.542C965.789 680.159 956.872 684.37 948.257 689.149C944.805 691.073 940.999 693.339 936.815 696.007C928.433 701.858 919.023 706.074 909.078 708.436C896.047 711.212 884.441 709.039 875.34 707.918C871.935 707.491 868.939 707.313 866.338 707.21C859.829 707.052 853.316 707.381 846.856 708.196C841.057 708.797 835.234 709.487 829.284 710.229C814.076 712.077 797.26 712.843 770.144 718.232C749.977 722.7 730.052 728.203 710.45 734.72C696.047 739.31 681.451 744.059 667.567 749.268C638.217 760.311 613.401 771.547 590.16 781.418C566.858 791.558 542.864 800.028 518.36 806.764C506.104 810.082 493.109 812.972 479.501 815.786C462.609 819.339 444.504 822.943 427.176 829.756C409.848 836.57 393.258 847.536 383.974 859.627" stroke="white" stroke-width="0.61" stroke-miterlimit="10"/>
<path opacity="0.56" d="M1409.15 686.503C1380.69 691.068 1340.8 679.945 1289.47 670.405C1257.09 664.391 1220.15 658.318 1185.03 652.109C1155.03 646.541 1124.71 642.81 1094.25 640.936C1082.99 640.15 1071.69 640.201 1060.44 641.089C1035.06 643.48 1015.87 651.634 999.76 658.83C995.031 660.94 990.475 663.039 986.092 665.126C977.163 669.427 968.527 674.312 960.24 679.748C956.923 681.953 953.313 684.554 949.182 687.378C941.048 693.696 931.659 698.205 921.643 700.606C908.516 703.46 896.914 700.91 887.778 699.269C884.376 698.654 881.379 698.259 878.794 697.952C872.286 697.246 865.742 696.915 859.196 696.96C853.322 696.871 847.455 696.898 841.446 696.962C826.158 697.163 809.131 696.06 781.51 700.381C764.256 703.074 743.442 708.655 721.093 715.583C706.54 720.097 691.848 724.925 677.933 730.324C648.51 741.792 623.941 753.925 600.943 764.823C577.951 776.04 554.139 785.489 529.712 793.087C517.483 796.81 504.478 799.989 490.832 803.096C473.872 806.943 455.724 810.782 438.213 817.68C420.703 824.578 403.981 835.292 394.229 847.11" stroke="white" stroke-width="0.61" stroke-miterlimit="10"/>
<path opacity="0.54" d="M1421.51 682.323C1392.9 683.493 1353.38 669.432 1301.8 657.823C1269.57 650.582 1232.48 643.649 1197.02 637.057C1166.86 631.197 1136.33 627.472 1105.65 625.909C1094.3 625.229 1082.91 625.465 1071.6 626.614C1046.11 629.649 1027.11 638.891 1011.27 647.171C1006.62 649.595 1002.16 652.035 997.907 654.49C989.199 659.43 980.836 664.955 972.877 671.029C969.696 673.461 966.137 676.243 962.2 679.372C954.324 686.172 944.944 691 934.834 693.458C921.624 696.376 909.966 693.424 900.827 691.291C897.44 690.472 894.43 689.874 891.86 689.363C884.223 687.812 878.064 687.147 872.174 686.393C866.285 685.638 860.286 684.977 854.271 684.304C838.853 682.76 821.668 679.913 793.621 683.075C776.132 685.045 754.998 690.183 732.484 697.021C717.777 701.4 703.035 706.347 689.076 711.951C659.61 723.872 635.258 736.874 612.5 748.771C589.742 760.667 568.149 771.139 541.855 779.966C529.637 784.079 516.611 787.594 502.938 790.948C485.955 795.101 467.707 799.179 450.083 806.113C432.458 813.047 415.521 823.573 405.289 835.133" stroke="white" stroke-width="0.6" stroke-miterlimit="10"/>
<path opacity="0.51" d="M1434.54 678.808C1405.77 676.555 1366.64 659.6 1314.82 645.934C1282.73 637.452 1245.52 629.629 1209.76 622.636C1179.45 616.452 1148.69 612.728 1117.78 611.5C1106.32 610.908 1094.83 611.315 1083.44 612.716C1057.82 616.369 1039.03 626.684 1023.53 635.97C1018.98 638.706 1014.64 641.442 1010.53 644.178C1002.05 649.791 993.96 655.976 986.323 662.691C983.244 665.43 979.849 668.437 976.028 671.777C969.332 677.654 960.925 683.963 948.902 686.643C935.594 689.611 923.885 686.315 914.753 683.645C911.355 682.653 908.36 681.852 905.737 681.185C898.101 679.01 891.899 677.682 885.936 676.266C879.974 674.849 873.929 673.496 867.77 672.18C852.209 668.907 834.891 664.287 806.421 666.288C788.695 667.535 767.244 672.259 744.501 678.924C729.684 683.185 715.107 688.238 700.831 694.06C671.246 706.366 647.201 720.289 624.67 733.199C602.138 746.11 580.834 757.649 554.61 767.327C542.465 771.884 529.37 775.664 515.656 779.282C498.609 783.787 480.317 788.07 462.564 795.028C444.81 801.985 427.687 812.32 416.974 823.622" stroke="white" stroke-width="0.6" stroke-miterlimit="10"/>
<path opacity="0.49" d="M1448.25 676.089C1419.32 670.398 1380.59 650.59 1328.53 634.81C1296.57 625.146 1259.23 616.389 1223.16 609.012C1192.69 602.53 1161.7 598.806 1130.57 597.887C1119.05 597.426 1107.51 598.04 1096.1 599.72C1070.35 604.02 1051.82 615.303 1036.57 625.731C1032.12 628.75 1027.88 631.798 1023.86 634.876C1015.61 641.158 1007.8 648.004 1000.49 655.362C997.607 658.277 994.278 661.613 990.574 665.191C984.051 671.492 975.754 678.141 963.661 680.87C950.257 683.916 938.523 680.245 929.37 677.04C925.974 675.86 922.98 674.841 920.41 673.895C912.806 671.095 906.557 669.075 900.522 666.997C894.487 664.919 888.396 662.873 882.194 660.893C866.475 655.906 849.024 649.484 820.13 650.354C802.141 650.908 780.398 655.159 757.459 661.706C742.515 665.896 727.847 671.015 713.541 677.033C683.867 689.75 660.086 704.583 637.781 718.508C615.475 732.432 594.488 745.037 568.318 755.522C555.565 760.526 542.555 764.846 529.342 768.464C512.246 773.306 493.941 777.851 476.011 784.762C458.081 791.673 440.805 801.902 429.596 812.933" stroke="white" stroke-width="0.59" stroke-miterlimit="10"/>
<path opacity="0.46" d="M1462.68 674.264C1433.6 665.105 1395.28 642.416 1342.91 624.598C1308.25 613.146 1272.97 603.693 1237.24 596.285C1206.62 589.5 1175.39 585.792 1144.03 585.215C1132.41 584.879 1120.78 585.683 1109.31 587.615C1083.45 592.53 1065.05 604.979 1050.2 616.381C1045.8 619.773 1041.66 623.134 1037.78 626.462C1029.75 633.413 1022.22 640.923 1015.25 648.937C1012.48 652.09 1009.32 655.705 1005.71 659.479C999.351 666.218 991.177 673.193 979.001 675.985C965.453 679.041 953.727 675.05 944.569 671.324C941.19 669.969 938.18 668.719 935.641 667.583C928.024 664.146 921.731 661.462 915.65 658.692C909.569 655.921 903.379 653.245 897.104 650.603C881.241 643.887 863.629 635.693 834.311 635.403C816.115 635.232 794.039 639.055 770.904 645.485C755.834 649.607 741.074 654.793 726.737 661.002C697.002 674.1 673.467 689.801 651.417 704.737C629.644 719.481 608.625 733.364 582.512 744.714C569.79 750.123 556.758 754.775 543.486 758.645C526.353 763.808 507.914 768.507 489.918 775.523C471.923 782.54 454.411 792.481 442.723 803.282" stroke="white" stroke-width="0.58" stroke-miterlimit="10"/>
<path opacity="0.44" d="M1477.78 673.466C1448.5 660.916 1410.54 635.421 1358 615.397C1323.45 602.693 1288.04 592.43 1252.05 584.683C1221.27 577.576 1189.81 573.858 1158.23 573.595C1146.52 573.337 1134.82 574.311 1123.31 576.502C1097.32 582.034 1079.1 595.543 1064.57 608.01C1060.31 611.673 1056.26 615.371 1052.41 619.104C1044.59 626.724 1037.33 634.9 1030.68 643.567C1028.06 646.972 1025.01 650.826 1021.52 654.868C1015.28 661.99 1007.28 669.33 995.036 672.17C981.406 675.318 969.611 670.941 960.447 666.694C957.084 665.134 954.061 663.683 951.536 662.314C943.867 658.315 937.584 654.906 931.446 651.487C925.307 648.068 919.038 644.644 912.717 641.31C896.711 632.864 878.969 622.925 849.211 621.462C830.792 620.552 808.397 623.933 785.052 630.261C769.844 634.289 754.986 639.537 740.622 645.955C710.788 659.537 687.53 676.133 665.693 692.098C644.187 707.81 623.429 722.791 597.372 734.978C584.716 740.754 571.699 745.706 558.405 749.803C541.206 755.289 522.709 760.209 504.585 767.249C486.461 774.289 468.672 783.987 456.639 794.623" stroke="white" stroke-width="0.58" stroke-miterlimit="10"/>
<path opacity="0.41" d="M1493.6 673.781C1464.13 657.78 1426.46 629.411 1373.8 607.323C1342.25 594.068 1304.56 582.567 1267.51 574.037C1236.61 566.644 1204.95 562.943 1173.18 563.013C1161.36 562.892 1149.57 564.076 1138.01 566.544C1111.92 572.721 1093.87 587.276 1079.67 600.794C1075.5 604.78 1071.56 608.75 1067.87 612.776C1060.26 621.054 1053.28 629.885 1046.99 639.198C1044.5 642.84 1041.57 646.961 1038.2 651.213C1032.2 658.812 1024.27 666.437 1011.92 669.342C998.221 672.567 986.372 667.817 977.203 663.048C973.841 661.3 970.832 659.616 968.349 658.013C960.734 653.301 954.292 649.235 948.156 645.193C942.02 641.151 935.657 636.965 929.249 632.984C913.087 622.825 895.197 611.099 865.015 608.476C846.346 606.858 823.647 609.81 800.12 616.005C784.776 619.966 769.815 625.282 755.412 631.891C725.505 645.899 702.51 663.404 680.913 680.368C659.647 697.078 639.166 713.171 613.178 726.18C600.529 732.375 587.464 737.68 574.077 742.056C556.842 747.864 538.274 753.02 520.036 760.097C501.798 767.173 483.792 776.654 471.234 787.02" stroke="white" stroke-width="0.57" stroke-miterlimit="10"/>
<path opacity="0.39" d="M1510.12 675.339C1480.49 655.942 1443.23 624.779 1390.3 600.493C1358.86 586.056 1321.07 573.62 1283.73 564.675C1252.65 556.967 1220.71 553.264 1188.69 553.654C1176.78 553.646 1164.91 555.02 1153.33 557.749C1127.05 564.633 1109.24 580.158 1095.37 594.755C1091.29 599.034 1087.46 603.335 1083.88 607.659C1076.51 616.623 1069.81 626.119 1063.83 636.068C1061.5 639.947 1058.69 644.335 1055.4 648.798C1049.57 656.821 1041.74 664.773 1029.33 667.739C1015.55 671.057 1003.71 665.959 994.46 660.63C991.085 658.68 988.091 656.792 985.568 655.017C977.984 649.68 971.558 644.976 965.274 640.234C958.99 635.492 952.615 630.698 946.189 625.994C929.867 614.092 911.848 600.621 881.241 596.838C862.336 594.496 839.316 596.977 815.592 603.055C800.134 606.963 785.089 612.355 770.668 619.158C740.631 633.624 717.924 651.979 696.569 669.97C675.603 687.704 655.337 704.854 629.419 718.714C616.801 725.299 603.703 730.918 590.236 735.524C572.95 741.667 554.309 747.032 535.911 754.104C517.514 761.177 499.429 770.561 486.329 780.616" stroke="white" stroke-width="0.57" stroke-miterlimit="10"/>
<path opacity="0.37" d="M1527.35 678.254C1497.56 655.421 1460.63 621.453 1407.5 595.035C1376.17 579.418 1338.29 566.06 1300.62 556.717C1269.39 548.693 1237.21 544.983 1204.98 545.692C1192.97 545.798 1181.02 547.358 1169.38 550.339C1143.05 557.777 1125.39 574.466 1111.82 590.086C1107.78 594.701 1104.1 599.306 1100.64 603.94C1093.49 613.575 1087.06 623.731 1081.43 634.324C1079.21 638.441 1076.5 643.054 1073.41 647.823C1067.75 656.269 1060.04 664.546 1047.53 667.563C1033.69 670.957 1021.72 665.447 1012.54 659.636C1009.47 657.713 1006.51 655.636 1003.66 653.413C996.077 647.424 989.593 642.072 983.265 636.666C976.937 631.26 970.473 625.762 963.987 620.381C947.522 606.75 929.419 591.575 898.31 586.564C879.269 583.478 855.845 585.551 831.912 591.527C816.31 595.33 801.157 600.783 786.708 607.793C756.639 622.637 734.153 641.921 713.009 660.912C692.263 679.572 672.307 697.891 646.429 712.573C633.879 719.56 620.79 725.53 607.286 730.424C589.894 736.937 571.303 742.399 552.74 749.599C534.177 756.798 515.928 765.904 502.361 775.685" stroke="white" stroke-width="0.56" stroke-miterlimit="10"/>
<path opacity="0.34" d="M1545.16 682.784C1515.19 656.542 1478.59 619.785 1425.31 591.175C1394.08 574.392 1356.11 560.084 1318.12 550.355C1286.71 542.013 1254.25 538.305 1221.76 539.349C1209.64 539.565 1197.6 541.322 1185.92 544.577C1159.46 552.633 1142.01 570.395 1128.75 587.081C1124.87 591.975 1121.3 596.863 1117.86 601.872C1110.93 612.172 1104.79 622.984 1099.49 634.214C1097.21 639.098 1094.66 643.853 1091.85 648.456C1086.42 657.292 1078.77 665.943 1066.19 669.036C1052.28 672.508 1040.24 666.611 1031.04 660.265C1027.97 658.141 1025.01 655.86 1022.18 653.433C1014.63 646.818 1008.08 640.789 1001.7 634.706C995.31 628.623 988.773 622.463 982.213 616.391C965.604 601.031 947.279 584.031 915.822 577.927C896.46 574.152 872.817 575.762 848.675 581.635C832.939 585.358 817.684 590.876 803.207 598.079C773.051 613.363 750.813 633.543 729.966 653.529C709.474 673.172 689.779 692.589 663.957 708.109C651.456 715.487 638.348 721.784 624.776 726.932C607.388 733.721 588.618 739.543 569.994 746.688C552.051 753.351 534.891 761.956 518.819 772.349" stroke="white" stroke-width="0.56" stroke-miterlimit="10"/>
<path opacity="0.32" d="M1562.77 689.949C1532.64 660.27 1496.36 620.724 1442.92 589.936C1409.09 570.959 1372.96 556.4 1335.42 546.616C1303.9 537.982 1271.23 534.28 1238.57 535.642C1226.37 535.943 1214.27 537.866 1202.58 541.359C1175.97 550.019 1158.73 568.867 1145.79 586.619C1141.99 591.827 1138.46 597.069 1135.2 602.347C1128.48 613.326 1122.62 624.802 1117.66 636.676C1115.52 641.799 1113.09 646.797 1110.39 651.648C1105.1 660.953 1097.6 669.883 1084.93 673.026C1070.87 676.507 1058.86 670.305 1049.65 663.437C1046.55 661.142 1043.6 658.656 1040.81 655.995C1033.26 648.758 1026.69 642.05 1020.24 635.261C1013.79 628.472 1007.2 621.663 1000.58 614.915C983.823 597.825 965.352 579.066 933.456 571.789C913.859 567.32 889.895 568.458 865.584 574.183C849.697 577.874 834.326 583.511 819.82 590.965C789.589 606.646 767.613 627.736 746.967 648.766C726.728 669.393 707.294 689.908 681.542 706.278C669.084 714.028 655.959 720.654 642.325 726.075C624.9 733.184 606.057 739.214 587.319 746.396C569.228 753.082 551.831 761.514 535.373 771.571" stroke="white" stroke-width="0.55" stroke-miterlimit="10"/>
<path opacity="0.29" d="M1580.84 699.142C1550.54 666.025 1514.54 623.707 1461.02 590.781C1427.39 570.59 1391.11 555.173 1353.22 544.973C1321.53 536.019 1288.59 532.298 1255.7 533.957C1243.39 534.399 1231.2 536.527 1219.47 540.283C1192.8 549.541 1175.68 569.498 1163.07 588.301C1159.36 593.801 1155.94 599.356 1152.8 604.963C1146.28 616.609 1140.69 628.748 1136.06 641.268C1134.1 646.644 1131.8 651.892 1129.18 656.982C1124.07 666.724 1116.7 675.95 1103.93 679.172C1089.76 682.748 1077.72 676.17 1068.49 668.768C1065.38 666.274 1062.44 663.584 1059.67 660.716C1052.14 652.84 1045.5 645.455 1038.97 638.048C1032.44 630.642 1025.81 623.097 1019.13 615.671C1002.2 596.854 983.561 576.368 951.281 567.885C931.402 562.652 907.18 563.401 882.686 568.994C866.697 572.576 851.245 578.232 836.722 585.818C806.329 601.901 784.661 623.912 764.27 645.954C744.271 667.579 725.127 689.191 699.431 706.397C687.022 714.529 673.88 721.483 660.176 727.167C642.748 734.654 623.754 740.824 604.934 748.069C586.661 754.832 568.999 763.143 552.14 772.91" stroke="white" stroke-width="0.54" stroke-miterlimit="10"/>
<path opacity="0.27" d="M1599.45 710.356C1568.95 673.804 1533.26 628.713 1479.55 593.553C1446.12 572.161 1409.7 555.869 1371.47 545.214C1339.65 535.975 1306.47 532.271 1273.4 534.263C1260.96 534.821 1248.67 537.152 1236.89 541.187C1210.06 551.122 1193.18 572.077 1180.9 591.93C1177.25 597.794 1173.92 603.666 1170.91 609.545C1164.63 621.871 1159.32 634.669 1155.03 647.822C1153.22 653.437 1151.06 658.929 1148.54 664.263C1143.61 674.429 1136.32 684.026 1123.49 687.281C1109.24 690.891 1097.15 683.968 1087.93 676.03C1084.81 673.362 1081.89 670.481 1079.17 667.409C1071.65 658.894 1064.97 650.845 1058.37 642.777C1051.76 634.709 1045.04 626.46 1038.33 618.355C1021.26 597.808 1002.46 575.522 969.77 565.921C949.672 560.007 925.115 560.271 900.395 565.748C884.263 569.268 868.697 575.01 854.143 582.809C823.752 599.355 802.27 622.209 782.12 645.279C762.344 667.86 743.494 690.626 717.878 708.609C705.523 717.136 692.358 724.424 678.573 730.368C661.062 738.135 642.074 744.609 623.107 751.835C604.676 758.664 586.765 766.824 569.517 776.25" stroke="white" stroke-width="0.54" stroke-miterlimit="10"/>
<path opacity="0.24" d="M1618.66 723.646C1588.01 683.67 1552.52 635.827 1498.73 598.47C1465.52 575.881 1428.93 558.725 1390.32 547.646C1358.35 538.097 1324.93 534.392 1291.64 536.706C1279.09 537.374 1266.71 539.893 1254.9 544.182C1227.97 554.762 1211.25 576.763 1199.29 597.682C1195.75 603.8 1192.5 610.014 1189.55 616.324C1183.47 629.316 1178.44 642.77 1174.5 656.559C1172.85 662.421 1170.8 668.163 1168.37 673.745C1163.65 684.346 1156.45 694.27 1143.56 697.573C1129.17 701.279 1117.04 693.968 1107.89 685.547C1104.73 682.668 1101.79 679.565 1099.08 676.262C1091.6 667.122 1084.86 658.367 1078.18 649.666C1071.5 640.965 1064.74 631.995 1057.91 623.159C1040.71 600.896 1021.78 576.865 988.632 566.077C968.313 559.454 943.421 559.262 918.601 564.543C902.345 567.989 886.678 573.791 872.099 581.765C841.621 598.752 820.4 622.486 800.493 646.583C780.932 670.222 762.427 694.052 736.794 712.863C724.518 721.754 711.357 729.356 697.521 735.547C679.944 743.637 660.912 750.317 641.789 757.597C623.188 764.47 605.03 772.486 587.418 781.6" stroke="white" stroke-width="0.53" stroke-miterlimit="10"/>
<path opacity="0.22" d="M1638.5 739.113C1607.61 695.76 1572.49 645.053 1518.55 605.532C1485.56 581.783 1448.81 563.756 1409.84 552.207C1377.71 542.366 1344.01 538.674 1310.51 541.325C1297.86 542.137 1285.4 544.853 1273.56 549.38C1246.51 560.59 1229.95 583.654 1218.34 605.636C1214.91 612.094 1211.79 618.594 1208.98 625.137C1203.12 638.809 1198.36 652.929 1194.75 667.361C1193.26 673.459 1191.34 679.445 1189.01 685.274C1184.47 696.298 1177.37 706.549 1164.39 709.915C1149.98 713.608 1137.74 706.014 1128.54 697.031C1125.38 693.949 1122.44 690.643 1119.76 687.137C1112.26 677.36 1105.48 667.971 1098.75 658.548C1092.03 649.126 1085.18 639.538 1078.33 630.066C1060.96 606.076 1041.88 580.287 1008.33 568.323C987.76 560.991 962.577 560.355 937.494 565.595C921.103 568.944 905.332 574.818 890.744 583.008C860.177 600.406 839.204 625.037 819.537 650.133C800.299 674.707 782.001 699.697 756.423 719.344C744.201 728.639 731.014 736.591 717.089 743.061C699.462 751.488 680.343 758.391 661.104 765.678C641.866 772.966 622.358 780.996 605.938 789.256" stroke="white" stroke-width="0.53" stroke-miterlimit="10"/>
<path opacity="0.2" d="M1658.98 756.81C1627.99 709.988 1593.08 656.557 1539.04 614.854C1506.29 589.937 1469.37 571.034 1430.01 559.029C1397.75 548.887 1363.81 545.178 1330.12 548.112C1317.34 549.017 1304.77 551.908 1292.88 556.678C1265.71 568.519 1249.37 592.67 1238.05 615.691C1234.73 622.46 1231.71 629.273 1228.98 636.128C1223.35 650.486 1218.87 665.271 1215.59 680.34C1214.24 686.663 1212.43 692.88 1210.18 698.942C1205.82 710.374 1198.82 720.965 1185.76 724.395C1171.21 728.199 1158.98 720.184 1149.76 710.667C1146.57 707.407 1143.62 703.916 1140.94 700.224C1133.47 689.822 1126.63 679.755 1119.85 669.685C1113.07 659.614 1106.14 649.307 1099.24 639.157C1081.72 613.438 1062.48 585.877 1028.53 572.752C1007.71 564.712 982.194 563.591 956.932 568.756C940.408 572.023 924.528 577.964 909.918 586.346C879.278 604.169 858.552 629.697 839.127 655.819C820.127 681.363 802.089 707.422 776.597 727.933C764.422 737.599 751.213 745.885 737.212 752.639C719.562 761.372 700.372 768.511 681.02 775.835C661.668 783.159 641.943 790.972 625.028 798.989" stroke="white" stroke-width="0.52" stroke-miterlimit="10"/>
<path opacity="0.17" d="M1680.16 776.881C1649 726.622 1614.31 670.423 1560.18 626.524C1527.69 600.469 1490.62 580.698 1450.88 568.225C1418.47 557.76 1384.27 554.048 1350.38 557.319C1337.5 558.358 1324.87 561.46 1312.98 566.505C1285.72 579.003 1269.54 604.187 1258.54 628.259C1255.31 635.341 1252.39 642.47 1249.79 649.646C1244.39 664.657 1240.2 680.077 1237.26 695.757C1236.1 702.339 1234.43 708.824 1232.29 715.155C1228.12 727.024 1221.23 737.927 1208.09 741.42C1193.44 745.303 1181.19 736.884 1171.92 726.863C1168.72 723.377 1165.79 719.658 1163.15 715.735C1155.73 704.693 1148.81 693.964 1141.96 683.203C1135.1 672.442 1128.11 661.486 1121.15 650.66C1103.51 623.196 1084.11 593.892 1049.72 579.593C1028.68 570.844 1002.87 569.307 977.397 574.313C960.74 577.55 944.759 583.612 930.144 592.237C899.416 610.472 878.967 636.894 859.768 664.03C841.022 690.557 823.291 717.755 797.824 739.076C785.71 749.118 772.483 757.734 758.402 764.755C740.755 773.763 721.453 781.185 701.957 788.518C682.461 795.852 662.58 803.501 645.185 811.26" stroke="white" stroke-width="0.52" stroke-miterlimit="10"/>
<path opacity="0.15" d="M1702.04 799.384C1670.71 745.687 1636.26 686.705 1582.05 640.623C1549.81 613.427 1512.58 592.767 1472.44 579.794C1439.88 569.04 1405.41 565.331 1371.31 568.915C1358.33 570.086 1345.62 573.385 1333.71 578.68C1306.27 591.756 1290.32 618.039 1279.64 643.177C1276.51 650.581 1273.69 658.023 1271.18 665.501C1265.98 681.207 1262.06 697.308 1259.46 713.646C1258.43 720.462 1256.89 727.191 1254.85 733.773C1250.88 746.063 1244.09 757.322 1230.85 760.865C1216.13 764.796 1203.8 756.064 1194.62 745.442C1191.42 741.745 1188.5 737.816 1185.89 733.689C1178.46 722.024 1171.51 710.632 1164.58 699.209C1157.65 687.786 1150.62 676.109 1143.63 664.559C1125.84 635.381 1106.29 604.32 1071.49 588.845C1050.18 579.374 1024.07 577.409 998.401 582.297C981.621 585.423 965.529 591.503 950.874 600.253C920.059 618.929 899.768 646.195 880.915 674.395C862.316 701.84 844.952 730.202 819.542 752.388C807.46 762.842 794.19 771.838 780.006 779.191C762.24 788.583 742.934 796.165 723.34 803.549C703.746 810.932 683.619 818.365 665.756 825.852" stroke="white" stroke-width="0.51" stroke-miterlimit="10"/>
<path opacity="0.12" d="M1724.54 824.527C1693.03 767.408 1658.81 705.671 1604.54 657.406C1572.54 629.088 1535.14 607.541 1494.59 594.063C1462.03 583.425 1427.47 578.932 1392.88 583.209C1379.77 584.492 1366.97 587.985 1355.02 593.541C1327.49 607.261 1311.72 634.604 1301.41 660.746C1298.37 668.439 1295.64 676.212 1293.26 684.021C1288.27 700.403 1284.63 717.165 1282.36 734.139C1281.5 741.171 1280.11 748.127 1278.19 754.948C1274.4 767.66 1267.76 779.272 1254.39 782.838C1239.57 786.848 1227.19 777.742 1217.98 766.659C1214.76 762.767 1211.85 758.64 1209.25 754.312C1201.84 742.008 1194.84 729.923 1187.85 717.852C1180.87 705.781 1173.76 693.413 1166.66 681.219C1148.72 650.312 1129.01 617.479 1093.8 600.858C1072.26 590.663 1045.84 588.24 1019.98 593.01C1003.06 596.052 986.855 602.211 972.188 611.173C941.273 630.304 921.285 658.434 902.643 687.635C884.344 716.102 867.194 745.523 841.853 768.53C829.853 779.298 816.597 788.578 802.373 796.17C784 805.785 764.981 814.113 745.455 821.095C725.589 828.54 705.434 835.758 687.09 842.986" stroke="white" stroke-width="0.5" stroke-miterlimit="10"/>
<path opacity="0.07" d="M1771.88 882.757C1740.04 818.776 1706.21 751.479 1651.85 698.815C1620.38 668.312 1582.67 644.994 1541.32 630.468C1508.42 619.302 1473.52 614.774 1438.37 619.652C1425.05 621.577 1411.85 624.77 1400.08 631.1C1372.31 646.081 1356.93 675.558 1347.22 703.878C1344.34 712.231 1341.83 720.613 1339.68 729.024C1335.11 746.752 1332.01 764.826 1330.41 783.063C1329.83 790.583 1328.67 798.048 1326.94 805.39C1323.54 818.961 1317.05 831.215 1303.57 834.933C1288.56 839.071 1275.99 829.181 1266.87 817.092C1263.63 812.8 1260.72 808.265 1258.18 803.525C1250.83 789.942 1243.73 776.574 1236.53 763.068C1229.34 749.562 1222.21 735.979 1215.01 722.473C1196.75 688.109 1176.7 651.821 1140.69 632.789C1118.65 621.208 1091.64 617.853 1065.38 622.389C1048.2 625.282 1031.78 631.582 1017.08 640.918C986.027 660.855 966.539 690.836 948.35 722.064C930.559 752.527 913.946 784.129 888.687 808.812C876.82 820.306 863.544 830.251 849.177 838.409C830.795 848.672 811.593 857.393 791.77 864.482C771.631 871.96 751.089 878.812 731.799 885.538" stroke="white" stroke-width="0.49" stroke-miterlimit="10"/>
<path opacity="0.05" d="M1796.63 916.14C1764.62 848.751 1731.06 778.596 1676.53 723.798C1645.34 692.202 1607.46 667.993 1565.69 652.951C1532.64 641.49 1497.46 636.88 1462.13 642.146C1448.83 644.085 1435.43 647.567 1423.62 654.159C1395.73 669.772 1380.51 700.282 1371.11 729.638C1368.34 738.254 1365.93 746.949 1363.86 755.722C1359.54 774.158 1356.75 792.919 1355.51 811.815C1355.08 819.579 1354.05 827.298 1352.42 834.9C1349.23 848.877 1342.77 861.432 1329.25 865.226C1314.15 869.443 1301.62 859.231 1292.42 846.553C1289.17 842.052 1286.27 837.313 1283.74 832.377C1276.41 818.184 1269.22 804.084 1262.04 789.997C1254.86 775.91 1247.56 761.497 1240.3 747.256C1221.88 711.179 1201.7 673.117 1165.27 652.925C1142.98 640.636 1115.67 636.837 1089.2 641.242C1071.9 644.069 1055.36 650.448 1040.64 659.977C1009.53 680.352 990.306 711.243 972.356 743.441C954.803 774.873 938.466 807.587 913.319 833.074C901.496 844.921 888.2 855.201 873.758 863.66C855.372 874.23 836.08 883.14 816.112 890.285C795.906 897.84 775.116 904.448 755.345 910.915" stroke="white" stroke-width="0.49" stroke-miterlimit="10"/>
<path opacity="0.02" d="M1822.13 952.531C1789.96 881.705 1756.53 808.832 1702.05 751.828C1671.55 719.898 1632.93 693.446 1590.91 678.494C1557.73 666.723 1522.31 662.098 1486.75 667.7C1473.31 669.821 1459.87 673.407 1448.01 680.278C1419.99 696.508 1405 728.118 1395.91 758.54C1393.24 767.455 1390.93 776.49 1388.98 785.545C1384.86 804.642 1382.32 824.046 1381.39 843.559C1381.11 851.557 1380.2 859.519 1378.66 867.373C1375.65 881.773 1369.36 894.694 1355.73 898.524C1340.52 902.791 1327.93 892.222 1318.74 879.036C1315.46 874.31 1312.54 869.345 1310 864.183C1302.69 849.375 1295.42 834.593 1288.2 819.838C1280.97 805.083 1273.66 790.164 1266.27 775.082C1247.74 737.273 1227.31 697.474 1190.49 676.106C1167.97 663.093 1140.36 658.864 1113.66 663.183C1096.23 665.933 1079.58 672.381 1064.84 682.095C1033.63 702.897 1014.64 734.671 996.956 767.894C979.673 800.323 963.597 834.135 938.464 860.505C926.703 872.713 913.39 883.323 898.866 892.064C880.487 902.964 861.104 912.075 840.984 919.27C820.605 926.836 799.657 933.252 779.407 939.491" stroke="white" stroke-width="0.48" stroke-miterlimit="10"/>
</g>
<g opacity="0.7">
<path d="M257.813 973.555C253.99 953.271 281.576 933.204 298.074 920.557C314.572 907.911 335.174 902.64 355.346 899.907C407.148 892.855 459.2 900.411 511.235 900.329C563.27 900.247 618.673 891.028 659.284 856.358C722.741 802.16 729.295 707.825 738.974 624.795C741.498 603.107 744.962 580.395 757.669 562.393C773.857 539.412 802.589 528.575 829.828 527.665C857.067 526.754 883.521 534.286 909.663 541.233C993.835 563.497 1083.37 579.709 1168.64 555.861C1253.92 532.013 1365.61 441.716 1382 289.638" stroke="white" stroke-width="0.71" stroke-miterlimit="10"/>
<path d="M274.526 970.107C270.726 949.834 282.197 928.379 298.694 915.732C315.192 903.086 335.795 897.814 355.966 895.082C407.768 888.03 459.82 895.585 511.867 895.481C563.913 895.376 619.293 886.203 659.916 851.51C723.361 797.335 729.938 703.011 739.618 619.981C742.119 598.282 745.605 575.581 758.29 557.568C774.5 534.598 803.233 523.762 830.472 522.851C857.71 521.94 884.164 529.473 910.306 536.42C994.478 558.684 1084.01 574.895 1169.26 551.036C1254.52 527.177 1366.29 436.775 1382.63 284.79" stroke="white" stroke-width="0.71" stroke-miterlimit="10"/>
<path opacity="0.98" d="M1386.04 289.067C1375.17 373.627 1332.54 437.402 1281.62 480.915C1245.28 511.946 1204.87 532.547 1168.81 542.148C1135.73 550.687 1101.63 554.673 1067.47 553.996C1054.29 553.865 1041.09 553.183 1027.99 552.086C997.405 549.401 967.018 544.827 937 538.393C928.329 536.606 919.708 534.719 911.136 532.732C893.12 528.592 874.896 524.062 856.471 522.414C848.896 521.713 841.277 521.607 833.685 522.098C820.607 523.022 807.779 526.145 795.739 531.335C782.356 536.735 770.592 545.495 761.584 556.769C758.32 561.132 755.539 565.836 753.289 570.798C746.866 584.812 744.168 600.678 741.998 616.003C739.827 631.328 737.794 646.951 735.429 662.667C729.409 702.691 721.345 742.904 703.956 778.223C692.966 801.32 677.216 821.832 657.739 838.412C644.598 849.301 629.93 858.202 614.204 864.831C581.39 878.915 545.215 884.244 510.512 885.458C475.809 886.673 440.455 884.351 405.201 885.406C388.901 885.783 372.642 887.181 356.517 889.592C336.392 892.749 315.767 898.296 299.143 911.023C282.519 923.75 270.761 945.034 273.895 965.148" stroke="white" stroke-width="0.71" stroke-miterlimit="10"/>
<path opacity="0.95" d="M1389.57 291.367C1377.42 371.818 1334.07 431.829 1282.45 473.069C1245.71 502.436 1205.02 522.154 1168.46 531.365C1135.06 539.587 1100.78 543.644 1066.38 543.445C1053.14 543.486 1039.89 543.033 1026.8 542.293C996.737 540.517 966.795 537.033 937.123 531.858C928.621 530.384 920.2 528.826 911.859 527.183C894.292 523.754 876.655 520.003 858.841 519.032C851.453 518.574 844.04 518.725 836.677 519.484C823.773 520.929 811.164 524.33 799.283 529.57C785.791 535.48 773.509 543.282 764.713 554.051C761.394 558.143 758.553 562.599 756.244 567.335C749.624 580.648 746.66 595.665 744.235 610.117C741.81 624.57 739.408 639.436 736.766 654.383C730.017 692.296 721.202 730.444 702.926 764.49C683.304 802.664 651.111 832.899 611.782 850.09C579.084 864.748 543.44 871.029 509.337 873.402C475.234 875.775 440.571 874.658 405.664 876.688C389.437 877.558 373.275 879.365 357.258 882.102C337.157 885.673 316.533 891.507 299.76 904.303C282.987 917.1 270.918 938.2 273.397 958.189" stroke="white" stroke-width="0.7" stroke-miterlimit="10"/>
<path opacity="0.93" d="M1393.33 291.887C1379.85 368.207 1335.79 424.395 1283.48 463.397C1246.36 491.088 1205.37 509.796 1168.31 518.756C1134.6 526.6 1100.13 530.725 1065.52 531.055C1052.19 531.257 1038.91 531.045 1025.86 530.638C996.312 529.763 966.829 527.356 937.53 523.428C929.247 522.321 921.102 520.995 912.945 519.808C895.896 517.067 878.79 514.153 861.471 513.744C854.304 513.548 847.133 513.944 840.032 514.929C827.287 516.943 814.872 520.667 803.123 526.001C789.516 532.027 777.061 539.37 768.103 549.542C764.761 553.374 761.858 557.568 759.448 562.045C752.678 574.624 749.402 588.826 746.653 602.544C743.905 616.262 741.26 630.291 738.363 644.308C730.875 680.19 721.251 716.1 702.145 748.988C689.582 771.026 673.064 790.56 653.419 806.61C639.956 817.349 625.228 826.399 609.564 833.558C576.89 848.859 541.845 856.069 508.376 859.589C474.907 863.109 440.88 863.311 406.364 866.225C390.212 867.574 374.143 869.78 358.225 872.832C338.183 876.804 317.524 882.937 300.625 895.814C283.726 908.692 271.335 929.632 273.16 949.438" stroke="white" stroke-width="0.69" stroke-miterlimit="10"/>
<path opacity="0.9" d="M1397.24 290.706C1382.46 362.941 1337.72 415.26 1284.67 452.059C1249.49 476.62 1210.04 494.392 1168.33 504.458C1134.31 511.973 1099.64 516.162 1064.81 516.965C1051.44 517.374 1038.1 517.392 1025.1 517.295C994.26 517.134 965.558 515.912 938.173 513.308C930.11 512.53 922.134 511.671 914.246 510.732C897.67 508.771 881.127 506.568 864.556 506.846C857.601 506.919 850.665 507.576 843.82 508.81C831.259 511.381 819.042 515.413 807.418 520.824C793.708 526.941 781.102 533.837 771.982 543.355C768.62 546.935 765.688 550.896 763.246 555.157C756.278 566.978 752.725 580.354 749.699 593.304C746.673 606.253 743.705 619.432 740.473 632.738C732.257 666.566 721.813 700.434 701.901 732.003C688.499 753.454 671.547 772.47 651.771 788.238C638.105 798.948 623.302 808.12 607.629 815.589C575.014 831.349 540.614 839.626 507.664 844.293C474.715 848.96 441.574 850.32 407.28 854.348C391.539 856.243 375.547 858.645 359.43 862.103C339.434 866.5 318.788 872.897 301.74 885.843C284.692 898.79 272.014 919.559 273.171 939.206" stroke="white" stroke-width="0.69" stroke-miterlimit="10"/>
<path opacity="0.88" d="M1401.44 288.033C1385.38 356.159 1340.01 404.609 1286.14 439.171C1250.19 462.397 1210.45 479.152 1168.72 488.678C1134.39 495.851 1099.51 500.105 1064.46 501.394C1051.04 501.975 1037.63 502.246 1024.64 502.528C993.839 503.159 965.771 503.199 938.998 501.731C931.153 501.3 923.388 500.767 915.75 500.209C899.774 498.553 883.705 497.96 867.65 498.433C860.906 498.776 854.204 499.694 847.616 501.177C835.257 504.288 823.235 508.608 811.722 514.073C797.92 520.317 785.175 526.685 775.836 535.721C772.418 539.029 769.397 542.724 766.834 546.731C759.692 557.807 755.85 570.379 752.466 582.606C749.083 594.833 745.872 607.117 742.351 619.62C733.407 651.394 722.234 683.15 701.423 713.469C687.207 734.319 669.851 752.844 649.97 768.387C636.13 779.057 621.263 788.323 605.587 796.048C574.35 811.224 541.08 821.797 506.812 827.437C474.428 833.159 442.105 835.758 408.203 840.783C392.67 843.183 376.713 845.918 360.69 849.824C340.752 854.623 320.129 861.203 302.875 874.334C285.62 887.465 272.655 908.062 273.215 927.469" stroke="white" stroke-width="0.68" stroke-miterlimit="10"/>
<path opacity="0.85" d="M1406.03 284.003C1388.56 347.964 1342.65 392.614 1288.04 424.972C1251.27 446.806 1211.2 462.515 1169.39 471.484C1134.74 478.315 1099.65 482.642 1064.38 484.431C1050.88 485.173 1037.43 485.686 1024.44 486.312C993.723 487.758 966.244 488.922 940.094 488.682C932.445 488.607 924.934 488.429 917.526 488.216C902.047 487.312 886.525 487.431 871.061 488.572C864.521 489.186 858.046 490.361 851.707 492.083C839.559 495.804 827.721 500.465 816.297 506.024C802.392 512.36 789.383 518.452 779.984 526.685C776.52 529.735 773.428 533.184 770.774 536.961C763.47 547.267 759.35 559.013 755.712 570.368C752.074 581.722 748.528 593.295 744.695 605.04C735.069 634.668 723.042 664.394 701.413 693.474C686.391 713.702 668.629 731.742 648.636 747.074C634.606 757.703 619.662 767.068 603.978 775.058C573.157 790.704 540.39 802.178 506.541 809.177C474.665 816.069 442.999 819.884 409.329 825.885C393.866 828.722 378.059 831.904 362.014 836.085C342.204 841.32 321.513 848.326 304.074 861.365C286.636 874.404 273.463 894.899 273.311 914.239" stroke="white" stroke-width="0.68" stroke-miterlimit="10"/>
<path opacity="0.83" d="M1410.88 278.675C1392.18 338.55 1345.58 379.331 1290.19 409.463C1252.63 429.908 1212.23 444.619 1170.32 453.107C1135.37 459.602 1100.06 463.995 1064.58 466.263C1051.01 467.2 1037.53 467.954 1024.55 468.901C993.893 471.152 966.956 473.647 941.647 474.541C934.229 474.811 926.925 475.003 919.736 475.118C904.797 474.93 889.861 475.704 875.021 477.435C868.694 478.336 862.454 479.772 856.369 481.725C844.485 486.001 832.845 490.927 821.501 496.48C807.539 502.931 794.367 508.484 784.738 516.2C781.262 519 778.125 522.194 775.388 525.719C767.795 535.222 763.478 546.21 759.574 556.773C755.67 567.336 751.836 578.105 747.691 588.979C737.29 616.644 724.535 644.143 702.042 671.963C686.236 691.552 668.073 709.116 647.964 724.256C633.743 734.821 618.733 744.28 603.066 752.551C572.59 768.678 540.283 781.078 506.841 789.48C475.576 797.509 444.591 802.493 411.371 809.607C396.047 812.857 380.322 816.51 364.3 820.99C344.444 826.604 323.754 833.897 306.282 847.062C288.809 860.228 275.348 880.436 274.392 899.663" stroke="white" stroke-width="0.67" stroke-miterlimit="10"/>
<path opacity="0.8" d="M1416.11 272.21C1396.11 327.999 1348.9 364.98 1292.7 392.817C1254.41 411.822 1213.71 425.498 1171.71 433.466C1136.38 439.93 1100.53 443.961 1065.24 446.83C1051.61 447.94 1038.06 448.946 1025.12 450.227C994.52 453.281 968.148 457.003 943.565 459.091C936.347 459.689 929.274 460.225 922.346 460.7C907.871 461.313 893.451 462.861 879.175 465.333C873.061 466.519 867.053 468.203 861.213 470.368C850.967 474.25 839.645 480.121 826.876 486.075C812.799 492.641 799.466 497.713 789.663 504.855C786.153 507.397 782.949 510.337 780.116 513.616C773.135 522.263 767.547 531.947 763.551 542.317C759.335 552.008 755.188 562.02 750.801 572.113C739.638 597.736 726.131 623.112 702.774 649.67C686.18 668.592 667.607 685.682 647.373 700.646C632.979 711.174 617.899 720.73 602.234 729.251C572.091 745.789 540.256 759.036 507.278 768.762C476.67 777.949 446.319 784.138 413.458 792.262C398.284 796.016 382.72 799.921 366.687 804.884C346.867 810.888 326.178 818.468 308.556 831.703C290.934 844.938 277.037 865.043 275.552 884.122" stroke="white" stroke-width="0.67" stroke-miterlimit="10"/>
<path opacity="0.78" d="M1421.75 264.778C1400.45 316.447 1352.7 349.548 1295.64 375.205C1256.61 392.727 1215.58 405.393 1173.47 412.916C1137.88 419.025 1101.72 423.125 1066.33 426.523C1052.64 427.805 1039.04 429.042 1026.14 430.69C995.557 434.525 969.774 439.486 945.929 442.743C938.937 443.712 932.128 444.485 925.366 445.396C911.399 446.77 897.533 449.033 883.854 452.173C877.97 453.635 872.214 455.568 866.64 457.953C856.716 462.282 845.671 468.52 832.799 474.566C818.642 481.236 805.147 485.882 795.25 492.404C791.711 494.705 788.446 497.402 785.518 500.442C778.415 508.264 772.569 517.141 768.19 526.757C763.754 535.679 759.192 544.853 754.573 554.143C741.644 580.68 724.64 605.03 704.18 626.308C686.808 644.522 667.835 661.137 647.489 675.955C632.885 686.462 617.709 696.15 602.03 704.974C572.18 721.978 540.798 736.14 508.298 747.273C478.312 757.572 448.63 765.011 416.104 774.133C401.104 778.347 385.541 782.769 369.601 787.949C349.862 794.367 329.139 802.246 311.368 815.55C293.597 828.854 279.412 848.788 277.284 867.661" stroke="white" stroke-width="0.66" stroke-miterlimit="10"/>
<path opacity="0.76" d="M1427.85 256.484C1405.23 304.057 1356.96 333.312 1299.03 356.731C1259.29 372.78 1217.92 384.425 1175.65 391.459C1139.76 397.247 1103.37 401.405 1067.69 405.263C1053.94 406.74 1040.39 408.264 1027.42 410.187C996.914 414.838 971.674 421.015 948.554 425.465C941.804 426.774 935.181 428.002 928.683 429.15C915.219 431.264 901.901 434.221 888.806 438.001C883.129 439.782 877.597 441.998 872.261 444.63C862.648 449.372 851.867 455.999 838.949 462.138C824.678 468.922 811.01 473.11 800.859 478.99C797.311 481.052 793.994 483.489 790.964 486.259C783.753 493.279 777.656 501.36 772.884 510.221C768.102 518.339 763.343 526.756 758.366 535.208C744.114 559.889 726.349 582.366 705.63 601.935C687.508 619.458 668.147 635.652 647.696 650.39C632.882 660.977 617.354 670.636 602.031 679.593C572.465 697.017 541.553 712.048 509.591 724.542C480.251 735.966 451.226 744.621 419.035 754.741C404.151 759.529 388.646 764.238 372.753 769.728C353.038 776.559 332.292 784.714 314.407 798.075C296.521 811.437 282.014 831.211 279.22 849.925" stroke="white" stroke-width="0.65" stroke-miterlimit="10"/>
<path opacity="0.73" d="M1434.47 247.5C1410.57 290.964 1361.76 316.396 1302.94 337.566C1262.53 352.093 1220.84 362.745 1178.43 369.38C1142.29 374.812 1105.61 379.063 1069.76 383.403C1055.91 385.122 1042.27 386.772 1029.35 389.121C998.913 394.552 974.25 401.876 951.868 407.611C945.303 409.279 938.891 410.871 932.631 412.385C919.666 415.264 906.894 418.952 894.39 423.427C888.925 425.489 883.618 427.95 878.512 430.789C869.245 435.989 858.729 443.007 845.708 449.237C831.345 456.148 817.481 459.866 807.202 465.137C803.641 466.947 800.275 469.117 797.157 471.614C789.838 477.827 783.494 485.103 778.336 493.2C773.253 500.538 768.149 508.21 762.929 515.767C747.321 538.526 728.791 559.135 707.814 577.067C688.911 593.818 669.106 609.523 648.488 624.112C633.501 634.642 617.87 644.393 602.571 653.649C573.254 671.502 542.794 687.407 511.388 701.26C482.659 713.819 454.327 723.735 422.471 734.854C407.748 740.009 392.382 745.246 376.524 751.069C356.868 758.302 336.111 766.766 318.065 780.22C300.019 793.674 285.236 813.254 281.775 831.808" stroke="white" stroke-width="0.65" stroke-miterlimit="10"/>
<path opacity="0.71" d="M1441.82 238.02C1416.53 277.353 1367.28 299.008 1307.49 317.86C1266.45 330.872 1224.42 340.533 1181.82 346.748C1145.41 351.848 1108.34 356.099 1072.42 360.98C1058.57 362.699 1044.74 364.74 1031.94 367.41C1001.57 373.644 977.468 382.311 955.812 389.124C949.454 391.125 943.257 393.034 937.255 394.896C924.787 398.511 912.561 402.911 900.649 408.07C895.417 410.436 890.354 413.16 885.497 416.223C875.142 423.334 864.36 429.802 853.211 435.589C838.745 442.592 824.753 445.873 814.198 450.605C810.601 452.196 807.163 454.126 803.933 456.37C796.597 461.784 790.069 468.214 784.544 475.466C779.172 482.001 773.801 488.766 768.247 495.611C754.194 513.03 737.637 529.891 710.777 551.496C693.8 565.165 673.405 581.151 650.139 597.201C634.98 607.674 619.257 617.551 603.981 627.048C574.875 645.356 544.849 662.158 514.022 677.389C485.939 691.072 458.241 702.193 426.824 714.333C412.24 719.959 396.967 725.586 381.132 731.765C361.499 739.411 340.744 748.163 322.571 761.697C304.399 775.232 289.157 794.697 285.064 813.139" stroke="white" stroke-width="0.64" stroke-miterlimit="10"/>
<path opacity="0.68" d="M1449.92 228.195C1423.39 263.442 1373.6 281.274 1313.02 297.785C1271.37 309.218 1229 317.852 1186.2 323.632C1149.46 328.308 1112.31 332.778 1076.07 338.072C1062.13 340.09 1048.33 342.292 1035.5 345.26C1005.17 352.322 981.637 362.216 960.719 370.199L942.842 377.026C930.875 381.387 919.195 386.499 907.872 392.332C902.872 394.987 898.049 397.963 893.433 401.241C883.438 408.911 872.799 415.702 861.633 421.536C847.086 428.643 832.932 431.5 822.272 435.52C818.655 436.891 815.163 438.57 811.833 440.539C804.322 445.234 797.475 450.916 791.475 457.432C785.745 463.187 780.223 469.045 774.334 475.179C759.519 490.555 742.164 505.271 714.452 525.706C696.933 538.561 676.032 554.123 652.49 570.093C637.159 580.509 621.344 590.512 606.08 600.274C573.81 620.88 544.828 638.446 517.379 653.276C489.93 668.106 462.889 680.443 431.739 693.605C417.259 699.655 402.113 705.718 386.348 712.219C366.774 720.267 345.939 729.409 327.663 742.921C309.387 756.433 293.904 775.864 289.133 794.112" stroke="white" stroke-width="0.64" stroke-miterlimit="10"/>
<path opacity="0.66" d="M1458.82 218.138C1431.01 249.276 1380.73 263.365 1319.12 277.731C1276.88 287.649 1234.15 295.33 1191.1 300.744C1154.08 305.283 1116.66 309.616 1080.23 315.393C1066.22 317.606 1052.37 320.037 1039.57 323.339C1009.29 331.227 986.359 342.338 966.144 351.502C960.178 354.271 954.476 356.799 948.958 359.361C937.493 364.472 926.36 370.296 915.623 376.799C910.854 379.771 906.256 383.009 901.852 386.5C892.263 394.714 881.781 401.826 870.605 407.701C855.944 414.922 841.617 417.32 830.772 420.732C827.097 421.856 823.518 423.27 820.066 424.959C812.469 428.916 805.391 433.795 798.991 439.488C793.007 444.428 787.058 449.586 780.926 454.825C765.383 468.147 747.323 480.763 718.724 499.868C700.697 511.898 679.382 527.081 655.427 542.96C639.923 553.319 624.028 563.426 608.742 573.406C576.472 594.644 548.136 613.162 521.264 629.139C494.136 645.212 466.155 659.8 437.445 672.84C423.174 679.395 408.052 685.814 392.322 692.648C372.795 701.121 351.948 710.401 333.627 724.177C315.306 737.953 299.477 756.926 294.016 775.003" stroke="white" stroke-width="0.63" stroke-miterlimit="10"/>
<path opacity="0.63" d="M1468.61 208.033C1439.46 235.04 1388.75 245.386 1326.22 257.343C1285.62 265.116 1240.16 272.625 1197.03 277.395C1159.82 281.521 1122.06 286.003 1085.44 292.286C1071.7 294.438 1058.1 297.343 1044.69 300.991C1014.55 309.694 992.079 322.009 972.624 332.354C966.889 335.391 961.368 338.382 956.061 341.326C945.091 347.172 934.504 353.709 924.362 360.897C920.303 363.869 915.947 367.267 911.305 371.354C902.121 380.108 891.778 387.558 880.565 393.495C865.824 400.821 851.346 402.771 840.178 405.506C836.511 406.45 832.908 407.628 829.391 409.033C821.707 412.272 814.393 416.327 807.575 421.128C801.314 425.3 795.076 429.655 788.643 434.056C772.372 445.324 753.561 455.817 724.075 473.649C705.553 484.887 683.616 499.59 659.511 515.423C643.812 525.714 627.803 535.936 612.644 546.237C580.479 567.957 552.707 587.53 526.446 604.643C499.965 621.966 472.469 637.686 444.106 651.717C429.984 658.72 414.955 665.586 399.249 672.719C379.791 681.628 359.026 691.206 340.452 704.914C321.878 718.622 305.831 737.572 299.75 755.513" stroke="white" stroke-width="0.63" stroke-miterlimit="10"/>
<path opacity="0.61" d="M1479.26 197.96C1448.82 220.882 1397.64 227.496 1334.19 237.101C1293.37 243.302 1247.55 249.858 1203.82 254.216C1166.31 258.021 1128.32 262.561 1091.5 269.316C1077.7 271.627 1064.06 274.787 1050.66 278.778C1020.48 288.24 998.694 301.84 979.943 313.366C974.45 316.743 969.151 320.074 964.071 323.312C953.609 329.896 943.579 337.141 934.042 345.004C930.225 348.24 926.099 351.924 921.653 356.252C912.903 365.527 902.704 373.319 891.455 379.322C876.633 386.751 861.971 388.266 850.767 390.438C847.06 391.168 843.394 392.092 839.783 393.207C831.965 395.781 824.4 399.065 817.181 403.019C810.631 406.387 804.081 409.928 797.383 413.537C780.36 422.74 760.821 431.121 730.448 447.737C711.396 458.139 688.941 472.441 664.48 488.126C648.62 498.394 632.508 508.708 617.349 519.181C585.185 541.417 558.048 562.023 532.501 580.237C506.728 598.782 479.769 615.622 451.799 630.649C437.85 638.053 422.88 645.379 407.232 652.856C387.787 662.144 366.976 672.044 348.23 685.867C329.484 699.69 313.172 718.423 306.425 736.204" stroke="white" stroke-width="0.62" stroke-miterlimit="10"/>
<path opacity="0.59" d="M1490.9 188.115C1459.15 206.917 1407.55 209.765 1343.09 217.064C1302.05 221.691 1255.7 227.181 1211.57 231.253C1173.64 234.446 1135.9 239.551 1098.49 246.55C1084.63 249.023 1070.96 252.442 1057.58 256.781C1027.47 267.047 1006.22 281.863 988.205 294.559C982.931 298.303 977.84 301.966 973.013 305.56C963.044 312.887 953.563 320.857 944.631 329.419C941.056 332.861 937.16 336.831 932.933 341.412C924.628 351.2 914.551 359.335 903.23 365.388C888.295 372.932 873.505 374.01 862.093 375.563C857.822 376.135 854.126 376.879 850.935 377.586C842.979 379.479 835.177 381.964 827.593 385.023C820.742 387.611 813.892 390.313 806.904 393.119C789.028 400.234 768.852 406.549 737.649 421.778C714.589 433.663 692.155 446.726 670.438 460.917C654.417 471.105 638.213 481.546 623.021 492.318C590.916 515.128 564.378 536.72 539.316 556.15C514.265 575.926 487.84 593.896 460.24 609.924C446.419 617.879 431.564 625.549 415.94 633.324C396.565 643.049 375.732 653.224 356.871 667.048C338.01 680.871 321.377 699.501 313.974 717.158" stroke="white" stroke-width="0.61" stroke-miterlimit="10"/>
<path opacity="0.56" d="M1503.49 178.601C1470.39 193.26 1418.39 192.526 1352.99 197.381C1311.75 200.447 1264.94 204.904 1220.31 208.61C1182.09 211.457 1144.07 216.635 1106.49 224.115C1092.56 226.765 1078.85 230.446 1065.48 235.127C1035.41 246.162 1014.73 262.206 997.466 276.106C992.399 280.183 987.539 284.19 982.885 288.128C973.419 296.212 964.496 304.909 956.173 314.165C952.851 317.905 949.3 322.22 945.188 326.972C937.333 337.249 927.376 345.732 915.982 351.854C900.954 359.525 886.049 360.144 874.429 361.077C870.1 361.42 866.334 361.899 863.097 362.354C854.967 363.581 846.915 365.275 838.98 367.427C831.817 369.2 824.701 371.11 817.425 373.113C798.923 378.254 777.893 382.366 745.734 396.46C725.645 405.256 702.155 418.699 677.234 434.27C661.007 444.412 644.711 454.98 629.542 465.993C597.484 489.343 571.534 511.944 547.095 532.544C522.768 553.529 496.876 572.629 469.646 589.679C455.987 598.116 441.213 606.142 425.636 614.285C406.273 624.388 385.464 634.863 366.408 648.847C347.352 662.831 330.477 681.198 322.419 698.672" stroke="white" stroke-width="0.61" stroke-miterlimit="10"/>
<path opacity="0.54" d="M1517.16 169.567C1482.79 180.152 1430.29 175.733 1363.93 178.155C1322.47 179.683 1275.21 183.141 1230.04 186.492C1191.54 189.034 1153.27 194.289 1115.51 202.217C1101.51 205.026 1087.76 208.959 1074.39 213.977C1044.4 225.827 1024.3 243.132 1007.72 258.26C1002.83 262.696 998.204 267.086 993.826 271.429C984.833 280.216 976.447 289.605 968.727 299.529C965.643 303.502 962.211 308.019 958.433 313.081C951.047 323.86 941.201 332.728 929.711 338.95C914.603 346.724 899.502 346.873 887.72 347.209C883.344 347.299 879.498 347.538 876.213 347.74C866.442 348.302 858.75 349.467 851.356 350.437C843.962 351.407 836.465 352.526 828.946 353.634C809.728 356.697 787.947 358.744 754.901 371.565C734.293 379.558 710.273 392.566 685.123 408.08C668.665 418.108 652.347 428.836 637.19 440.113C605.225 464.026 579.817 487.614 555.99 509.349C532.162 531.085 509.295 550.717 480.19 569.857C466.67 578.765 451.978 587.204 436.447 595.656C417.154 606.139 396.299 616.935 377.117 631C357.935 645.065 340.738 663.271 332.014 680.586" stroke="white" stroke-width="0.6" stroke-miterlimit="10"/>
<path opacity="0.51" d="M1531.85 161.128C1496.19 167.604 1443.25 159.545 1375.94 159.546C1334.25 159.524 1286.56 161.939 1240.89 164.9C1202.1 167.097 1163.56 172.426 1125.63 180.834C1111.52 183.784 1097.7 187.958 1084.32 193.306C1054.38 205.948 1034.86 224.493 1019.01 240.732C1014.36 245.513 1009.97 250.223 1005.85 254.864C997.348 264.396 989.508 274.497 982.384 285.098C979.523 289.411 976.364 294.149 972.792 299.428C966.543 308.71 958.355 319.064 944.612 326.169C929.402 334.035 914.127 333.782 902.183 333.465C897.738 333.348 893.845 333.334 890.445 333.364C880.476 333.168 872.519 333.542 864.825 333.732C857.131 333.921 849.356 334.214 841.456 334.588C821.51 335.597 799.001 335.532 765.067 347.081C743.941 354.271 719.404 366.878 693.92 382.255C677.292 392.175 661.207 402.98 645.735 414.622C613.748 439.04 589.009 463.649 565.781 486.543C542.554 509.437 520.378 530.273 491.632 550.423C478.342 559.847 463.651 568.631 448.155 577.416C428.897 588.346 408.055 599.406 388.724 613.541C369.393 627.675 351.908 645.71 342.518 662.865" stroke="white" stroke-width="0.6" stroke-miterlimit="10"/>
<path opacity="0.49" d="M1547.64 153.432C1510.67 155.789 1457.3 144.136 1389.02 141.647C1347.12 140.144 1298.97 141.469 1252.8 144.064C1213.73 145.949 1174.9 151.351 1136.8 160.206C1122.66 163.336 1108.85 167.777 1095.53 173.47C1065.63 186.939 1046.75 206.573 1031.57 224.121C1027.13 229.215 1022.96 234.273 1019.07 239.297C1011.05 249.57 1003.76 260.384 997.238 271.662C994.676 276.124 991.701 281.241 988.348 286.772C982.444 296.513 974.498 307.245 960.687 314.431C945.385 322.424 929.96 321.723 917.819 320.762C913.316 320.416 909.353 320.138 905.93 319.813C895.799 318.848 887.564 318.395 879.569 317.804C871.575 317.214 863.523 316.68 855.357 316.262C834.672 315.24 811.422 313.03 776.614 323.34C754.945 329.773 729.902 341.899 704.143 357.196C687.337 367.07 671.163 377.984 655.717 389.874C623.755 414.82 599.626 440.449 576.998 464.502C554.37 488.555 532.921 510.584 504.498 531.698C490.614 541.858 476.198 551.271 461.311 559.896C442.1 571.251 421.328 582.632 401.767 596.767C382.206 610.902 364.503 628.857 354.423 645.842" stroke="white" stroke-width="0.59" stroke-miterlimit="10"/>
<path opacity="0.46" d="M1564.57 146.596C1526.32 144.786 1472.52 129.506 1403.21 124.642C1357.47 121.832 1311.59 121.65 1265.83 124.098C1226.46 125.667 1187.36 131.164 1149.09 140.506C1134.87 143.821 1121 148.521 1107.7 154.54C1077.87 168.79 1059.51 189.801 1045.12 208.403C1040.86 213.933 1036.91 219.339 1033.27 224.622C1025.75 235.635 1019.01 247.167 1013.1 259.132C1010.76 263.846 1008.07 269.249 1004.91 274.987C999.336 285.209 991.643 296.297 977.752 303.586C962.277 311.637 946.76 310.546 934.445 308.954C929.907 308.39 925.852 307.836 922.406 307.27C912.054 305.536 903.553 304.291 895.281 302.874C887.009 301.457 878.635 300.189 870.168 298.991C848.754 295.915 824.743 291.605 789.047 300.642C766.894 306.261 741.311 317.975 715.275 333.192C698.294 343.024 682.031 354.048 666.609 366.18C634.694 391.609 611.141 418.213 589.148 443.413C567.429 468.29 546.35 491.88 518.275 514.027C504.556 524.67 490.221 534.492 475.343 543.442C456.19 555.199 435.303 566.81 415.697 581.095C396.091 595.379 378.008 613.059 367.273 629.919" stroke="white" stroke-width="0.58" stroke-miterlimit="10"/>
<path opacity="0.44" d="M1582.66 140.791C1543.07 134.93 1488.81 116.125 1418.6 108.633C1372.57 104.272 1326.28 103.148 1280.09 105.267C1240.44 106.493 1201.05 112.053 1162.61 121.848C1148.31 125.284 1134.41 130.215 1121.14 136.56C1091.35 151.602 1073.55 173.841 1059.89 193.636C1055.9 199.448 1052.16 205.237 1048.68 211.002C1041.62 222.761 1035.42 235.014 1030.13 247.667C1028.03 252.644 1025.56 258.3 1022.62 264.325C1017.33 274.971 1009.96 286.449 996.001 293.818C980.458 302.007 964.733 300.468 952.244 298.245C947.66 297.429 943.524 296.634 940.02 295.781C929.426 293.381 920.704 291.253 912.155 289.067C903.606 286.881 894.896 284.73 886.152 282.705C864.01 277.575 839.282 271.188 802.676 278.941C780.016 283.734 753.903 295.013 727.581 310.173C710.402 319.935 694.039 331.067 678.651 343.461C646.772 369.509 623.842 397.111 602.436 423.492C581.352 449.46 560.942 474.3 533.201 497.445C519.682 508.512 505.461 518.694 490.628 527.927C471.5 540.098 450.613 551.996 430.858 566.349C411.102 580.703 392.606 598.177 381.4 614.946" stroke="white" stroke-width="0.58" stroke-miterlimit="10"/>
<path opacity="0.41" d="M1601.96 136.108C1561.05 126.116 1506.22 103.729 1435.2 93.7699C1392.63 87.7781 1343.19 85.8786 1295.46 87.3861C1255.57 88.303 1215.93 93.9504 1177.37 104.21C1162.99 107.847 1149.04 113.062 1135.8 119.76C1106.09 135.618 1088.84 159.073 1075.92 180.037C1072.13 186.213 1068.62 192.296 1065.43 198.367C1058.84 210.855 1053.19 223.815 1048.53 237.141C1046.68 242.359 1044.44 248.301 1041.71 254.543C1036.86 265.694 1029.67 277.493 1015.6 284.978C999.997 293.281 984.086 291.307 971.424 288.453C966.782 287.406 962.588 286.325 959.06 285.173C948.303 281.889 939.178 279.015 930.432 276.072C921.686 273.129 912.618 270.082 903.562 267.3C880.681 260.139 855.201 251.629 817.708 258.109C794.519 262.123 767.899 272.978 741.312 288.036C723.948 297.76 707.482 309.007 692.108 321.645C660.276 348.233 637.957 376.856 617.162 404.373C596.689 431.476 576.971 457.577 549.577 481.698C536.202 493.273 522.035 503.899 507.179 513.501C488.109 526.073 467.212 538.281 447.33 552.715C427.449 567.15 408.619 584.429 396.689 601.039" stroke="white" stroke-width="0.57" stroke-miterlimit="10"/>
<path opacity="0.39" d="M1622.52 132.709C1580.33 118.643 1525.11 92.731 1453.05 80.1901C1410.24 72.7289 1360.37 69.7278 1312.16 70.823C1271.95 71.4177 1231.97 77.1493 1193.21 87.8784C1178.75 91.6815 1164.78 97.1505 1151.58 104.176C1121.87 120.951 1105.22 145.508 1093.05 167.677C1089.47 174.177 1086.2 180.627 1083.23 187.027C1077.15 200.272 1072.05 213.949 1067.99 227.945C1066.39 233.403 1064.38 239.632 1061.83 246.104C1057.32 257.713 1050.35 269.879 1036.23 277.455C1020.56 285.897 1004.55 283.498 991.606 279.99C986.883 278.702 982.642 277.368 979.01 276.021C968.091 271.969 958.781 268.314 949.631 264.568C940.481 260.821 931.205 257.041 921.894 253.387C898.262 244.16 872.066 233.573 833.685 238.78C809.977 241.991 782.817 252.376 755.954 267.354C738.433 277.05 721.89 288.417 706.556 301.297C674.713 328.483 653.016 358.046 632.845 386.732C613.063 414.982 593.945 442.3 566.91 467.43C553.696 479.468 539.589 490.487 524.709 500.393C505.686 513.389 484.766 525.874 464.69 540.354C444.613 554.835 425.656 572.023 412.968 588.428" stroke="white" stroke-width="0.57" stroke-miterlimit="10"/>
<path opacity="0.37" d="M1644.39 130.73C1600.89 112.544 1545.17 83.1197 1472.19 68.0543C1429.14 59.1236 1378.86 55.0325 1330.12 55.7499C1289.63 56.0065 1249.37 61.8073 1210.45 72.9906C1195.9 76.9657 1181.88 82.6887 1168.71 90.0345C1139.12 107.499 1123.02 133.421 1111.54 156.737C1108.11 163.635 1105.11 170.406 1102.4 177.142C1096.79 191.132 1092.25 205.523 1088.79 220.192C1087.41 225.903 1085.6 232.373 1083.38 239.153C1079.21 251.221 1072.5 263.743 1058.28 271.411C1042.55 279.968 1026.25 277.11 1013.24 272.993C1008.9 271.639 1004.64 270.065 1000.47 268.279C989.341 263.434 979.753 259.011 970.338 254.473C960.922 249.935 951.311 245.328 941.711 240.87C917.351 229.59 890.507 216.959 851.124 220.837C827.013 223.188 799.231 233.207 772.081 248.128C754.352 257.743 737.697 269.218 722.396 282.359C690.635 310.015 669.503 340.633 649.909 370.467C630.692 399.772 612.323 428.409 585.6 454.526C572.598 467.03 558.613 478.471 543.782 488.739C524.748 502.218 503.92 514.806 483.683 529.493C463.446 544.181 444.202 561.083 430.859 577.306" stroke="white" stroke-width="0.56" stroke-miterlimit="10"/>
<path opacity="0.34" d="M1667.46 130.529C1622.66 108.258 1566.44 75.3428 1492.58 57.6609C1449.28 47.2839 1398.58 42.0682 1349.34 42.4192C1308.52 42.3492 1267.91 48.2431 1228.79 59.9144C1214.15 64.0576 1200.09 70.0474 1186.95 77.7396C1157.4 95.9966 1141.88 123.157 1131.13 147.666C1127.99 154.85 1125.22 161.931 1122.65 169.114C1117.52 183.843 1113.53 198.94 1110.69 214.274C1109.48 220.936 1107.91 227.526 1105.98 234.015C1102.22 246.484 1095.69 259.441 1081.41 267.225C1065.62 275.896 1049.11 272.591 1035.91 267.832C1031.5 266.235 1027.18 264.412 1022.96 262.371C1011.67 256.757 1001.8 251.531 992.093 246.19C982.389 240.848 972.477 235.461 962.566 230.189C937.478 216.854 909.779 202.078 869.624 204.74C844.902 206.357 816.706 215.883 789.269 230.748C771.353 240.308 754.594 251.894 739.321 265.277C707.595 293.496 687.051 325.124 668.137 356.07C649.543 386.488 631.843 416.375 605.455 443.491C592.638 456.454 578.737 468.3 563.903 478.898C544.962 492.71 524.032 505.791 503.703 520.433C484.049 534.271 465.965 550.216 449.776 567.984" stroke="white" stroke-width="0.56" stroke-miterlimit="10"/>
<path opacity="0.32" d="M1691.14 133.589C1645.05 107.197 1588.32 70.7924 1513.57 50.5171C1466.41 38.3076 1417.87 32.198 1369.15 32.338C1328.1 31.9493 1287.24 37.9172 1248.02 50.0298C1233.3 54.3016 1219.22 60.5123 1206.14 68.4982C1176.6 87.5361 1161.7 115.947 1151.68 141.648C1148.73 149.189 1146.12 156.686 1143.85 164.141C1139.21 179.622 1135.77 195.437 1133.55 211.444C1132.59 218.351 1131.24 225.198 1129.52 231.953C1126.07 244.949 1119.83 258.193 1105.44 266.069C1089.49 274.798 1072.91 271.114 1059.53 265.724C1055.03 263.928 1050.65 261.855 1046.41 259.517C1034.92 253.146 1024.79 247.105 1014.79 240.925C1004.78 234.746 994.592 228.59 984.392 222.515C958.576 207.126 930.137 190.262 889.073 191.64C863.843 192.488 835.107 201.545 807.417 216.283C789.306 225.853 772.446 237.621 757.217 251.319C725.526 280.043 705.594 312.691 687.256 344.842C669.285 376.372 652.254 407.51 626.224 435.636C613.577 449.038 599.761 461.287 584.939 472.236C566.056 486.45 545.104 499.807 524.649 514.53C504.821 528.443 486.395 544.254 469.63 561.738" stroke="white" stroke-width="0.55" stroke-miterlimit="10"/>
<path opacity="0.29" d="M1716.03 138.966C1668.63 108.454 1611.36 68.5935 1535.82 45.7474C1488.51 31.9999 1439.51 24.8969 1390.24 24.6425C1348.89 23.9183 1307.69 29.9492 1268.28 42.4971C1253.48 46.9749 1239.36 53.4633 1226.32 61.781C1196.89 81.5651 1182.49 111.284 1173.2 138.155C1170.45 146.024 1168.08 153.866 1166.06 161.679C1161.88 177.91 1158.97 194.443 1157.37 211.127C1156.7 218.286 1155.59 225.395 1154.04 232.415C1150.96 245.882 1144.96 259.446 1130.48 267.449C1114.42 276.328 1097.69 272.196 1084.12 266.163C1079.54 264.129 1075.1 261.807 1070.82 259.21C1059.15 252.058 1048.73 245.214 1038.43 238.312C1028.12 231.41 1017.65 224.37 1007.17 217.492C980.587 200.06 951.386 181.153 909.468 181.189C883.651 181.201 854.478 189.868 826.523 204.504C808.254 213.975 791.301 225.792 776.093 239.655C744.336 268.919 725.071 302.588 707.368 335.886C690.008 368.551 673.68 400.928 647.986 430.052C635.521 443.901 621.789 456.555 606.968 467.846C588.201 482.519 567.111 496.095 546.576 510.921C526.552 524.986 507.765 540.734 490.419 557.994" stroke="white" stroke-width="0.54" stroke-miterlimit="10"/>
<path opacity="0.27" d="M1742.22 146.624C1693.47 112.005 1635.69 68.677 1559.21 43.1801C1511.76 27.9069 1462.31 19.7883 1412.48 19.0917C1370.87 18.0634 1329.4 24.1887 1289.87 37.2003C1274.95 41.8603 1260.77 48.6286 1247.76 57.2999C1218.36 77.9568 1204.57 108.811 1196.02 136.852C1193.46 145.142 1191.3 153.339 1189.53 161.443C1185.84 178.423 1183.49 195.665 1182.5 213.012C1182.1 220.409 1181.23 227.772 1179.88 235.056C1177.15 248.981 1171.37 262.97 1156.83 271.03C1140.68 279.978 1123.78 275.445 1110.04 268.757C1105.4 266.515 1100.93 263.954 1096.65 261.093C1084.79 253.161 1074.1 245.524 1063.5 237.842C1052.89 230.16 1042.09 222.294 1031.35 214.601C1004.04 195.115 974.063 174.074 931.293 172.883C904.992 172.138 875.255 180.324 846.99 194.891C828.526 204.332 811.462 216.29 796.285 230.422C764.678 260.248 745.91 294.881 728.829 329.349C712.045 363.104 696.444 396.788 671.097 426.83C658.823 441.141 645.17 454.208 630.334 465.842C611.556 480.882 590.571 494.825 569.852 509.674C549.656 523.869 530.519 539.514 512.592 556.486" stroke="white" stroke-width="0.54" stroke-miterlimit="10"/>
<path opacity="0.24" d="M1769.81 156.612C1719.77 117.884 1661.36 71.1467 1584.07 43.0103C1536.51 26.214 1486.58 17.0989 1436.15 16.0075C1394.27 14.6497 1352.49 20.8546 1312.81 34.3244C1297.79 39.1539 1283.56 46.1787 1270.59 55.1708C1241.27 76.6429 1228.02 108.714 1220.19 137.947C1217.85 146.512 1215.89 155.099 1214.33 163.708C1211.11 181.43 1209.31 199.379 1208.94 217.386C1208.82 225.033 1208.16 232.663 1207 240.221C1204.66 254.605 1199.1 268.961 1184.5 277.102C1168.21 286.211 1151.14 281.219 1137.33 273.922C1132.58 271.437 1128.01 268.611 1123.67 265.466C1111.65 256.765 1100.66 248.291 1089.76 239.863C1078.87 231.435 1067.78 222.708 1056.66 214.166C1028.64 192.638 997.952 169.519 954.248 167.033C927.452 165.496 897.162 173.235 868.713 187.597C850.075 196.988 832.908 209.051 817.757 223.404C786.185 253.793 768.016 289.412 751.558 325.05C735.374 360.021 720.534 394.886 695.43 425.938C683.369 440.667 669.822 454.113 655.003 466.063C636.249 481.516 615.276 495.723 594.385 510.688C573.997 524.991 554.513 540.541 536.045 557.249" stroke="white" stroke-width="0.53" stroke-miterlimit="10"/>
<path opacity="0.22" d="M1798.84 169.042C1747.46 126.286 1688.57 75.9551 1610.41 45.2366C1562.74 26.9609 1512.34 16.8395 1461.31 15.2966C1419.14 13.6349 1377.04 19.9432 1337.21 33.8909C1322.1 38.929 1307.84 46.2162 1294.91 55.5068C1265.65 77.7827 1252.93 111.093 1245.87 141.507C1243.78 150.447 1242.07 159.339 1240.75 168.185C1238.01 186.666 1236.75 205.337 1236.99 224.019C1237.14 231.902 1236.72 239.785 1235.76 247.61C1233.77 262.452 1228.43 277.176 1213.75 285.42C1197.44 294.517 1180.14 289.216 1166.09 281.254C1161.26 278.524 1156.64 275.449 1152.25 272.052C1140.01 262.581 1128.77 253.35 1117.59 244.061C1106.41 234.772 1095.02 225.323 1083.67 216.012C1054.9 192.441 1023.47 167.234 978.886 163.452C951.56 161.136 920.775 168.428 891.993 182.825C873.16 192.14 855.889 204.324 840.796 218.942C809.249 249.859 791.668 286.488 775.821 323.261C760.329 359.265 746.112 395.472 721.342 427.522C709.477 442.724 696.009 456.604 681.171 468.921C662.464 484.8 641.457 499.305 620.428 514.316C599.399 529.327 578.281 545.326 560.985 560.616" stroke="white" stroke-width="0.53" stroke-miterlimit="10"/>
<path opacity="0.2" d="M1829.39 183.972C1776.76 137.038 1717.25 83.3327 1638.27 49.9977C1590.52 30.2261 1539.64 19.0939 1487.99 17.1202C1445.57 15.1366 1403.16 21.5016 1363.19 35.8539C1347.96 41.0469 1333.63 48.5799 1320.71 58.1823C1291.51 81.2619 1279.4 115.822 1273.02 147.407C1271.16 156.69 1269.67 165.931 1268.56 175.128C1266.32 194.368 1265.62 213.755 1266.46 233.106C1266.84 241.219 1266.63 249.348 1265.84 257.431C1264.2 272.709 1259.1 287.811 1244.34 296.158C1227.88 305.44 1210.47 299.621 1196.22 291.017C1191.3 288.08 1186.61 284.786 1182.17 281.16C1169.76 270.921 1158.24 260.887 1146.77 250.829C1135.31 240.771 1123.6 230.473 1111.97 220.358C1082.46 194.734 1050.27 167.427 1004.84 162.36C976.982 159.264 945.633 166.076 916.61 180.438C897.589 189.697 880.207 201.997 865.149 216.855C833.649 248.312 816.656 285.949 801.432 323.893C786.539 360.997 772.979 398.421 748.592 431.492C736.902 447.129 723.515 461.422 708.675 474.108C690.038 490.365 669.02 505.181 647.866 520.272C626.711 535.364 605.259 551.168 587.285 566.322" stroke="white" stroke-width="0.52" stroke-miterlimit="10"/>
<path opacity="0.17" d="M1861.54 201.563C1807.6 150.51 1747.48 93.3714 1667.68 57.3968C1619.88 36.1631 1568.53 24.0252 1516.28 21.6049C1473.58 19.274 1430.85 25.7207 1390.74 40.5469C1375.43 45.9335 1361.09 53.7438 1348.26 63.6792C1319.17 87.5855 1307.58 123.351 1301.93 156.105C1300.28 165.74 1299.02 175.332 1298.15 184.881C1296.4 204.84 1296.26 224.906 1297.71 244.888C1298.4 253.255 1298.46 261.662 1297.88 270.038C1296.62 285.786 1291.75 301.232 1276.91 309.683C1260.36 319.091 1242.78 312.791 1228.32 303.59C1223.32 300.381 1218.57 296.802 1214.11 292.884C1201.56 281.852 1189.72 271.037 1177.95 260.165C1166.18 249.293 1154.19 238.226 1142.27 227.308C1112.05 199.606 1079.1 170.234 1032.76 163.883C1004.41 159.996 972.576 166.394 943.242 180.631C924.051 189.898 906.585 202.377 891.599 217.531C860.123 249.516 843.752 288.151 829.128 327.253C814.858 365.471 802.036 404.178 777.938 438.226C766.443 454.3 753.14 468.999 738.288 482.035C719.744 498.625 698.681 513.82 677.354 528.969C656.027 544.119 634.333 559.774 615.693 574.768" stroke="white" stroke-width="0.52" stroke-miterlimit="10"/>
<path opacity="0.15" d="M1895.31 221.884C1840.07 166.71 1779.34 106.117 1698.76 67.5142C1650.89 44.8153 1599.06 31.6494 1546.16 28.7505C1503.18 26.1158 1460.14 32.6515 1419.88 47.9238C1404.48 53.5042 1390.11 61.5793 1377.34 71.8257C1348.21 96.4901 1337.26 133.517 1332.34 167.464C1330.9 177.459 1329.86 187.399 1329.21 197.284C1327.93 218.022 1328.32 238.83 1330.39 259.504C1331.33 268.109 1331.62 276.773 1331.24 285.422C1330.36 301.617 1325.72 317.464 1310.78 326.007C1294.16 335.496 1276.39 328.84 1261.84 318.881C1256.77 315.415 1251.97 311.579 1247.47 307.406C1234.72 295.617 1222.62 284.01 1210.55 272.358C1198.48 260.705 1186.2 248.777 1174.02 236.987C1143.06 207.254 1109.38 175.794 1062.16 168.147C1033.25 163.468 1000.91 169.444 971.305 183.601C951.93 192.772 934.335 205.308 919.341 220.627C887.901 253.175 871.991 292.785 858.128 333.069C844.331 372.353 832.327 412.357 808.575 447.437C797.251 464.001 784.018 479.175 769.147 492.646C750.581 509.742 729.564 525.132 708.134 540.373C686.704 555.615 664.643 571.088 645.348 585.899" stroke="white" stroke-width="0.51" stroke-miterlimit="10"/>
<path opacity="0.12" d="M1930.69 245.21C1874.13 185.939 1812.81 121.925 1731.44 80.694C1683.51 56.5527 1631.2 42.3636 1577.64 38.9815C1534.68 36.4933 1491.29 42.1027 1450.65 58.3747C1435.13 64.1323 1420.71 72.4739 1407.98 83.0462C1378.93 108.526 1368.55 146.78 1364.4 181.828C1363.17 192.144 1362.34 202.458 1361.95 212.703C1361.14 234.195 1362.08 255.717 1364.77 277.055C1365.98 285.87 1366.51 294.764 1366.37 303.661C1365.83 320.314 1361.49 336.54 1346.4 345.152C1329.69 354.767 1311.73 347.675 1297 337.166C1291.85 333.469 1286.98 329.391 1282.44 324.967C1269.51 312.398 1257.13 299.965 1244.78 287.544C1232.43 275.122 1219.84 262.38 1207.32 249.844C1175.63 218.057 1141.18 184.496 1093.1 175.588C1063.68 170.107 1030.82 175.624 1000.94 189.702C981.368 198.813 963.662 211.482 948.721 227.062C917.305 260.195 902.041 300.757 888.754 342.188C875.649 382.619 864.245 423.838 840.84 459.894C829.715 476.813 816.589 492.328 801.747 506.102C782.514 523.663 762.086 539.867 740.609 554.599C718.869 570.002 696.704 585.222 676.743 599.875" stroke="white" stroke-width="0.5" stroke-miterlimit="10"/>
<path opacity="0.07" d="M2006.83 300.762C1947.67 233.263 1885.04 162.372 1802.16 115.827C1754.17 88.865 1700.91 72.6259 1646.04 68.2288C1602.52 65.2021 1558.68 70.8813 1517.56 88.0617C1502 94.6654 1486.99 102.772 1474.73 114.227C1445.8 141.314 1436.57 182.035 1433.84 219.537C1433.02 230.602 1432.65 241.586 1432.74 252.488C1432.86 275.48 1434.89 298.422 1438.78 321.082C1440.49 330.399 1441.47 339.834 1441.73 349.303C1441.94 366.874 1437.98 383.834 1422.81 392.664C1405.9 402.498 1387.47 394.512 1372.53 382.751C1367.22 378.579 1362.23 374.001 1357.63 369.06C1344.35 354.918 1331.45 340.959 1318.38 326.863C1305.32 312.766 1292.31 298.555 1279.24 284.458C1246.06 248.575 1210.09 210.929 1160.27 199.349C1129.8 192.343 1095.92 196.92 1065.48 210.838C1045.55 219.852 1027.62 232.762 1012.76 248.808C981.438 282.963 967.373 325.613 955.285 369.36C943.437 412.051 933.382 455.748 910.613 493.812C899.883 511.572 886.946 527.9 872.112 542.408C853.076 560.758 832.551 577.498 810.748 592.455C788.687 607.985 765.935 622.885 744.664 637.231" stroke="white" stroke-width="0.49" stroke-miterlimit="10"/>
<path opacity="0.05" d="M2047.57 333.378C1987.12 261.794 1923.9 187.344 1840.13 138.263C1792.13 109.883 1738.38 92.6154 1682.83 87.7274C1639.03 84.3913 1594.83 90.0597 1553.62 107.769C1538.08 114.384 1522.92 122.904 1510.69 134.692C1481.83 162.583 1473.11 204.508 1471.1 243.169C1470.5 254.517 1470.36 265.848 1470.66 277.163C1471.31 300.936 1473.92 324.615 1478.47 347.958C1480.44 357.523 1481.66 367.227 1482.11 376.982C1482.71 394.977 1478.89 412.292 1463.7 421.226C1446.7 431.187 1428.21 422.799 1412.98 410.349C1407.6 405.922 1402.56 401.096 1397.9 395.913C1384.46 381.024 1371.21 366.205 1357.98 351.397C1344.75 336.588 1331.27 321.425 1317.89 306.456C1283.97 268.542 1247.27 228.784 1196.56 215.932C1165.56 208.146 1131.18 212.276 1100.45 226.103C1080.34 235.079 1062.3 248.12 1047.48 264.406C1016.23 299.113 1002.77 342.783 991.283 387.632C980.035 431.424 970.672 476.383 948.296 515.387C937.732 533.561 924.878 550.302 910.049 565.2C891.106 583.924 870.532 600.922 848.572 615.994C826.454 631.639 803.323 646.322 781.385 660.508" stroke="white" stroke-width="0.49" stroke-miterlimit="10"/>
<path opacity="0.02" d="M2090.2 369.402C2028.44 293.698 1964.51 215.908 1880.09 164.129C1832.83 135.122 1777.47 115.366 1721.64 110.668C1677.58 106.999 1633.09 112.725 1591.7 130.917C1576.06 137.796 1560.88 146.455 1548.68 158.598C1519.85 187.282 1511.77 230.469 1510.48 270.322C1510.09 282.003 1510.18 293.717 1510.71 305.338C1511.82 329.847 1514.95 354.223 1520.07 378.219C1522.29 388.021 1523.73 397.982 1524.38 408.011C1525.33 426.464 1521.83 444.169 1506.51 453.184C1489.41 463.237 1470.73 454.436 1455.35 441.366C1449.85 436.678 1444.71 431.583 1439.98 426.126C1426.36 410.485 1412.8 394.862 1399.3 379.258C1385.8 363.654 1372.14 347.878 1358.34 331.931C1323.72 291.951 1286.17 250.162 1234.62 236.002C1203.1 227.414 1168.22 231.12 1137.18 244.913C1116.89 253.838 1098.74 267 1083.95 283.516C1052.71 318.774 1039.82 363.442 1028.99 409.449C1018.39 454.365 1009.69 500.574 987.616 540.646C977.244 559.237 964.475 576.386 949.637 591.652C930.808 610.775 910.188 628.046 888.058 643.228C865.733 658.942 842.349 673.442 819.756 687.503" stroke="white" stroke-width="0.48" stroke-miterlimit="10"/>
</g>
<rect width="1280" height="1031" fill="url(#paint0_linear)" fill-opacity="0.7"/>
</g>
<defs>
<linearGradient id="paint0_linear" x1="25" y1="450.537" x2="692" y2="450.537" gradientUnits="userSpaceOnUse">
<stop offset="0.557721"/>
<stop offset="0.83958" stop-opacity="0.32"/>
</linearGradient>
</defs>
</svg>
