<svg width="1280" height="1031" viewBox="0 0 1280 1031" fill="none" xmlns="http://www.w3.org/2000/svg">
<rect width="1280" height="1031" fill="black"/>
<mask id="mask0" style="mask-type:alpha" maskUnits="userSpaceOnUse" x="0" y="0" width="1280" height="1031">
<rect width="1280" height="1031" fill="#C4C4C4"/>
</mask>
<g mask="url(#mask0)">
<path d="M913.001 917.823C848.224 898.294 784.84 858.171 735.696 800.503C675.753 730.178 647.204 646.092 657.393 569.832C664.934 513.251 692.725 467.194 737.862 436.222C846.699 361.832 1022.85 404.061 1130.49 530.372C1190.44 600.671 1218.99 684.757 1208.79 761.043C1201.25 817.624 1173.46 863.681 1128.33 894.654C1069.15 935.074 990.111 941.069 913.001 917.823ZM952.519 415.173C876.058 392.123 797.725 398.02 739.142 438.08C694.557 468.539 667.054 514.202 659.675 570.152C649.589 645.791 677.931 729.248 737.456 799.08C844.42 924.535 1019.21 966.58 1127.12 892.818C1171.71 862.359 1199.21 816.696 1206.59 760.746C1216.68 685.081 1188.33 601.65 1128.81 531.819C1079.93 474.487 1016.85 434.569 952.519 415.173Z" fill="url(#paint0_radial)"/>
<path d="M888.082 923.254C840.972 908.912 797.305 885.058 759.783 853.166C690.764 794.719 648.433 715.201 643.44 634.903C639.578 571.429 659.813 512.387 700.479 468.342C796.06 364.834 978.204 368.962 1106.48 477.45C1175.51 535.871 1217.83 615.414 1222.85 695.721C1226.69 759.187 1206.45 818.228 1165.79 862.274C1099.29 934.416 990.999 954.28 888.082 923.254ZM701.319 469.218L702.165 469.983C661.915 513.588 641.888 572.126 645.729 634.828C650.634 714.477 692.735 793.443 761.26 851.459C888.585 959.262 1069.28 963.492 1164.03 860.866C1204.27 817.288 1224.3 758.75 1220.46 696.047C1215.55 616.398 1173.45 537.432 1104.93 479.416C977.603 371.614 796.906 367.383 702.165 469.983L701.319 469.218Z" fill="url(#paint1_radial)"/>
<path d="M865.384 935.132C839.938 927.442 815.49 916.773 792.548 903.347C717.902 859.715 663.24 789.253 642.648 710.058C624.623 640.672 633.899 569.972 668.685 510.955L669.723 511.551L668.685 510.955C746.161 379.756 927.804 342.326 1073.59 427.513C1148.23 471.145 1202.93 541.588 1223.49 620.801C1241.51 690.187 1232.24 760.888 1197.45 819.904C1132.48 929.921 994.264 973.985 865.384 935.132ZM1000.13 397.976C872.289 359.436 735.195 403.073 670.854 512.119C636.249 570.539 627.176 640.564 645.031 709.389C665.442 787.962 719.676 857.87 793.798 901.174C938.273 985.627 1118.57 948.639 1195.38 818.6C1229.99 760.181 1239.06 690.156 1221.23 621.338C1200.79 542.757 1146.58 472.857 1072.31 429.506C1049.56 416.211 1025.33 405.654 1000.11 398.054L1000.13 397.976Z" fill="url(#paint2_radial)"/>
<path d="M848.209 953.49C843.328 952.019 838.421 950.54 833.616 948.723C674.449 892.242 589.541 719.368 644.399 563.139C657.29 526.282 677.378 492.355 703.496 463.329C729.614 434.304 761.24 410.76 796.538 394.065C833.142 376.535 872.866 366.456 913.4 364.415C953.934 362.374 994.47 368.411 1032.65 382.176C1191.82 438.656 1276.72 611.53 1221.87 767.759C1208.98 804.614 1188.89 838.538 1162.78 867.56C1136.66 896.581 1105.03 920.12 1069.74 936.807C1000.6 969.95 921.531 975.904 848.209 953.49ZM1017.28 379.807C944.578 357.581 866.182 363.485 797.633 396.35C762.642 412.9 731.287 436.238 705.392 465.009C679.497 493.78 659.578 527.41 646.791 563.945C592.391 718.84 676.599 890.37 834.583 946.267C872.443 959.897 912.633 965.872 952.821 963.844C993.009 961.816 1032.39 951.825 1068.69 934.453C1103.68 917.9 1135.03 894.561 1160.93 865.79C1186.82 837.02 1206.74 803.391 1219.53 766.857C1273.93 611.963 1189.73 440.407 1031.74 384.535C1026.93 382.83 1022.11 381.263 1017.28 379.807Z" fill="url(#paint3_radial)"/>
<path d="M837.683 977.507C777.427 959.174 724.727 921.824 687.467 871.045C635.583 801.137 614.85 713.205 628.926 623.673C657.058 446.273 816.34 320.675 984.017 343.667C1022.59 348.978 1059.69 361.997 1093.12 381.949C1126.56 401.9 1155.63 428.376 1178.62 459.799C1230.5 529.706 1251.23 617.638 1237.16 707.171C1209.03 884.57 1049.74 1010.17 882.093 987.185C867.06 985.123 852.211 981.887 837.683 977.507ZM1027.72 355.879C1013.34 351.547 998.639 348.347 983.759 346.308C817.495 323.516 659.556 448.131 631.624 624.118C617.546 712.998 638.049 800.097 689.583 869.473C712.366 900.61 741.18 926.845 774.31 946.617C807.44 966.39 844.209 979.296 882.429 984.567C1048.69 1007.36 1206.63 882.744 1234.56 706.757C1248.67 617.884 1228.15 530.752 1176.6 461.401C1139.67 411.074 1087.44 374.054 1027.72 355.879Z" fill="url(#paint4_radial)"/>
<path d="M836.998 1006.27C797.66 994.285 761.517 973.613 731.238 945.785C664.08 884.641 624.954 791.957 623.913 691.127C622.039 497.516 759.045 328.468 929.445 314.243C1004.98 307.956 1077.86 333.1 1134.96 385.064C1202.11 446.233 1241.19 539.048 1242.27 639.748C1244.21 833.349 1107.19 1002.42 936.795 1016.65C903.173 1019.51 869.313 1015.99 836.998 1006.27ZM1028.39 327.249C996.424 317.643 962.93 314.157 929.67 316.973C760.667 331.166 624.782 498.938 626.718 691.123C627.747 790.958 666.386 883.099 733.066 943.759C789.58 995.208 861.797 1020.12 936.5 1013.87C1105.5 999.675 1241.38 831.929 1239.44 639.744C1238.41 539.823 1199.67 447.737 1133.07 387.1C1103.1 359.568 1067.32 339.114 1028.39 327.249Z" fill="url(#paint5_radial)"/>
<path d="M844.47 1037.39C823.683 1031.13 803.771 1022.28 785.208 1011.02C705.216 962.581 648.739 872.398 630.395 763.575C595.815 559.793 703.417 349.99 870.242 295.858C905.018 284.285 941.903 280.458 978.313 284.643C1014.72 288.829 1049.78 300.927 1081.02 320.089C1161.02 368.507 1217.49 458.716 1235.84 567.512C1270.41 771.32 1162.81 981.124 995.986 1035.26C946.896 1051.49 893.998 1052.24 844.47 1037.39ZM633.156 762.964C651.564 871.012 707.437 960.475 786.713 1008.48C817.617 1027.43 852.294 1039.4 888.312 1043.54C924.331 1047.68 960.819 1043.9 995.219 1032.45C1160.73 978.739 1267.44 770.368 1233.11 567.935C1214.7 459.887 1158.83 370.424 1079.55 322.422C1048.64 303.449 1013.95 291.47 977.918 287.325C941.885 283.18 905.382 286.969 870.969 298.427C705.539 352.159 598.822 560.53 633.156 762.964Z" fill="url(#paint6_radial)"/>
<path d="M859.575 1069.02C855.032 1067.65 850.483 1066.11 845.966 1064.46C757.596 1032.16 685.787 949.614 648.849 838.302C580.195 631.243 651.652 385.195 808.197 289.813C875.03 249.068 950.429 240.785 1020.33 266.445C1108.7 298.75 1180.5 381.292 1217.44 492.604C1286.1 699.663 1214.64 945.711 1058.09 1041.09C995.543 1079.19 925.573 1088.91 859.575 1069.02ZM1005.72 264.817C940.501 245.156 871.386 254.767 809.628 292.397C654.205 387.154 583.319 631.591 651.586 837.4C688.215 947.854 759.384 1029.61 846.855 1061.7C915.944 1087.03 990.385 1078.83 1056.41 1038.6C1211.83 943.845 1282.72 699.409 1214.45 493.6C1177.82 383.145 1106.65 301.392 1019.18 269.3C1014.81 267.557 1010.26 266.187 1005.72 264.817Z" fill="url(#paint7_radial)"/>
<path d="M880.267 1098.93C800.301 1074.83 728.442 1008.61 679.803 913.002C576.662 710.416 606.244 434.353 745.528 297.77C806.025 238.489 880.64 212.609 955.666 224.917C1047.59 239.997 1131.69 310.326 1186.38 417.873C1289.49 620.563 1259.93 896.574 1120.68 1033.03C1060.19 1092.31 985.579 1118.16 910.545 1105.88C900.313 1104.22 890.199 1101.9 880.267 1098.93ZM984.968 234.912C975.161 231.947 965.17 229.625 955.059 227.963C881.051 215.848 807.413 241.4 747.642 299.965C609.198 435.64 579.962 709.995 682.506 911.551C736.758 1018.23 820.026 1087.94 910.895 1102.84C984.903 1114.96 1058.55 1089.38 1118.31 1030.84C1256.76 895.164 1285.99 620.81 1183.46 419.227C1135.36 324.435 1064.18 258.792 985.046 234.936L984.968 234.912Z" fill="url(#paint8_radial)"/>
<path d="M905.075 1125.53C838.636 1105.5 774.838 1056.7 723.152 984.726C586.596 794.526 569.371 496.536 684.712 320.532C736.587 241.375 809.006 196.848 888.669 195.09C980.028 193.148 1072.73 248.199 1143.05 346.097C1279.62 536.271 1296.83 834.287 1181.49 1010.29C1129.62 1089.45 1057.2 1133.98 977.535 1135.73C952.996 1136.15 928.543 1132.71 905.075 1125.53ZM960.135 208.591C936.995 201.497 912.881 198.098 888.682 198.521C810.11 200.324 738.65 244.206 687.393 322.445C572.692 497.452 589.911 793.77 725.778 982.969C795.432 1079.99 887.157 1134.52 977.466 1132.48C1056.04 1130.68 1127.49 1086.82 1178.75 1008.59C1293.45 833.579 1276.23 537.261 1140.36 348.062C1089.12 276.678 1025.9 228.417 960.135 208.591Z" fill="url(#paint9_radial)"/>
<path d="M930.437 1147.56C878.251 1131.83 826.455 1099.02 778.433 1050.5C610.723 881.159 543.321 570.733 628.231 358.507C668.246 258.47 736.39 194.017 820.1 177.053C908.943 159.03 1004.07 195.695 1087.9 280.445C1255.61 449.789 1323.01 760.215 1238.11 972.415C1198.09 1072.48 1129.94 1136.93 1046.24 1153.9C1007.71 1161.46 967.907 1159.28 930.437 1147.56ZM934.772 186.557C897.855 175.028 858.644 172.893 820.693 180.347C738.127 197.09 670.886 260.795 631.287 359.739C546.859 570.836 613.904 879.626 780.644 1048.05C863.677 1131.88 957.699 1168.27 1045.38 1150.52C1127.95 1133.78 1195.19 1070.07 1234.8 971.104C1319.22 760.033 1252.17 451.244 1085.43 282.815C1037.75 234.653 986.439 202.133 934.772 186.557Z" fill="url(#paint10_radial)"/>
<path d="M955.316 1163.59C918.423 1152.47 881.031 1133.6 844.27 1107.2C649.11 966.993 529.837 654.921 578.353 411.501C602.492 290.562 663.442 205.163 749.982 171.01C832.681 138.419 929.244 157.078 1021.87 223.661C1217.08 363.882 1336.33 676.032 1287.83 919.374C1263.7 1040.29 1202.75 1125.71 1116.21 1159.86C1066.28 1179.48 1011.37 1180.49 955.316 1163.59ZM909.849 170.774C854.522 154.094 800.418 155.06 751.308 174.412C665.862 208.13 605.682 292.572 581.822 412.207C533.536 654.393 652.18 964.889 846.323 1104.33C937.954 1170.16 1033.3 1188.71 1114.85 1156.57C1200.29 1122.85 1260.47 1038.41 1284.33 918.772C1332.64 676.508 1214 366.013 1019.85 226.593C983.428 200.376 946.353 181.778 909.849 170.774Z" fill="url(#paint11_radial)"/>
<path d="M974.115 1173.19C955.346 1167.48 937.032 1160.37 919.325 1151.92C701.809 1048.76 530.679 746.826 537.824 478.954C541.504 340.858 592.98 231.361 679.065 178.52C753.956 132.274 849.096 132.633 946.824 179.088C1164.39 282.091 1335.51 584.049 1328.32 852.051C1324.64 990.147 1273.17 1099.64 1187.12 1152.47C1126.22 1189.79 1052.16 1196.72 974.115 1173.19ZM891.163 161.261C814.131 138.038 741.057 144.812 681.118 181.575C595.938 233.669 545.211 342.089 541.546 478.915C534.393 745.595 704.594 1046 920.893 1148.59C1017.54 1194.41 1111.35 1194.68 1185.17 1149.33C1270.15 1097.17 1320.98 988.76 1324.65 851.934C1331.79 585.28 1161.59 284.874 945.295 182.281C927.759 173.917 909.621 166.877 891.034 161.221L891.163 161.261Z" fill="url(#paint12_radial)"/>
<path d="M983.419 1176.9C756.685 1108.55 546.06 836.26 508.979 559.134C488.459 405.954 524.519 275.439 607.88 201.101C673.752 142.308 764.993 123.847 864.71 148.952C1098.17 207.863 1319.17 487.273 1357.22 771.715C1377.73 924.921 1341.67 1055.44 1258.27 1129.9C1192.4 1188.7 1101.15 1207.16 1001.45 1182.03C995.453 1180.39 989.417 1178.71 983.419 1176.9ZM1002.41 1178.18L1001.85 1180.02L1002.41 1178.18C1100.85 1203.01 1190.82 1184.8 1255.77 1126.91C1338.17 1053.42 1373.77 924.152 1353.43 772.245C1315.54 489.18 1095.95 211.273 863.911 152.733C765.471 127.9 675.501 146.092 610.546 204.001C528.156 277.47 492.556 406.736 512.886 558.669C550.652 841.695 770.286 1119.62 1002.41 1178.18Z" fill="url(#paint13_radial)"/>
<path d="M980.457 1176.21C771.689 1113.27 566.977 899.155 493.808 650.516C446.089 488.344 462.126 339.416 537.863 241.793C594.274 169.102 677.376 132.638 778.013 136.184C1019.97 144.749 1286.61 388.866 1372.38 680.359C1420.1 842.531 1404.06 991.459 1328.32 1089.08C1271.91 1161.8 1188.84 1198.33 1088.15 1194.77C1051.61 1193.23 1015.41 1186.99 980.457 1176.21ZM884.822 158.527C850.127 147.854 814.201 141.697 777.932 140.21C678.591 136.686 596.677 172.687 541.07 244.403C466.189 340.783 450.463 488.587 497.697 649.452C583.045 939.43 848.013 1182.25 1088.4 1190.76C1187.74 1194.29 1269.66 1158.26 1325.26 1086.57C1400.14 990.192 1415.87 842.388 1368.63 681.523C1295.74 434.129 1092.21 221.049 884.822 158.527Z" fill="url(#paint14_radial)"/>
<path d="M962.38 1173.22C775.993 1117.03 590.727 957.351 494.143 750.398C418.128 587.483 409.908 424.785 471.607 303.926C515.811 217.33 591.225 161.555 689.692 142.61C931.544 96.0852 1237.66 292.511 1372.02 580.555C1448.04 743.469 1456.26 906.168 1394.56 1027C1350.35 1113.62 1274.95 1169.37 1176.47 1188.34L1176.1 1186.3L1176.47 1188.34C1108.56 1201.38 1035.34 1195.22 962.38 1173.22ZM902.747 161.637C830.388 139.823 757.936 133.728 690.471 146.697C593.326 165.389 518.929 220.423 475.386 305.858C414.271 425.534 422.521 586.91 497.987 748.639C594.068 954.535 778.268 1113.53 963.461 1169.36C1035.82 1191.17 1108.27 1197.27 1175.74 1184.27C1272.88 1165.61 1347.28 1110.57 1390.82 1025.14C1451.94 905.461 1443.69 744.084 1368.22 582.355C1272.32 376.343 1087.97 217.475 902.747 161.637Z" fill="url(#paint15_radial)"/>
<path d="M927.67 1171.11C770.543 1123.75 615.515 1012.01 511.273 855.823C408.483 701.491 372.92 531.881 413.518 390.357C442.719 288.703 508.288 212.315 602.998 169.664C835.497 65.0059 1172.8 202.039 1354.91 475.163C1457.7 629.384 1493.27 798.994 1452.67 940.518C1423.47 1042.17 1357.91 1118.53 1263.2 1161.18C1163.81 1206 1045.13 1206.52 927.67 1171.11ZM937.281 163.863C820.837 128.759 703.307 129.297 604.795 173.661C511.27 215.763 446.581 291.113 417.688 391.558C377.38 531.838 412.828 700.138 514.965 853.254C695.917 1124.67 1030.76 1261.02 1261.41 1157.16L1262.31 1159.16L1261.41 1157.16C1354.93 1115.06 1419.62 1039.71 1448.52 939.266C1488.82 798.985 1453.37 630.685 1351.25 477.517C1247.6 322.103 1093.42 210.934 937.281 163.863Z" fill="url(#paint16_radial)"/>
<path d="M880.64 1174.64C759.627 1138.16 641.4 1066.32 546.141 962.915C420.608 826.622 356.316 658.83 369.732 502.625C379.706 386.678 433.588 285.639 521.454 218.154C734.823 54.2551 1093.08 121.417 1320.05 367.935C1445.58 504.254 1509.87 672.045 1496.46 828.25C1486.48 944.197 1432.6 1045.24 1344.73 1112.72L1343.35 1110.92L1344.73 1112.72C1220.86 1207.87 1048.15 1225.14 880.64 1174.64ZM984.17 160.524C818.008 110.431 646.926 127.48 524.226 221.736C436.126 289.434 384.261 386.692 374.289 503.008C360.941 657.958 424.801 824.458 549.444 959.945C644.119 1062.75 761.752 1134.21 881.986 1170.46C1048.15 1220.55 1219.23 1203.5 1341.94 1109.22C1430.03 1041.54 1481.89 944.287 1491.87 827.971C1505.19 673.013 1441.34 506.487 1316.66 371.104C1222.04 268.231 1104.4 196.77 984.17 160.524Z" fill="url(#paint17_radial)"/>
<path d="M830.781 1188.58C746.7 1163.06 668.062 1122.21 598.832 1068.1C456.647 957.261 364.987 800.96 347.491 639.062C333.291 508.322 369.237 383.635 448.652 287.999C632.973 66.0059 1000.24 54.7112 1267.36 262.775C1409.54 373.613 1501.2 529.915 1518.7 691.813C1532.9 822.553 1496.95 947.24 1417.53 1042.88C1282.82 1205.08 1050.4 1254.79 830.781 1188.58ZM1033.99 146.796C816.164 81.1276 585.807 130.297 452.378 291.048C373.697 385.659 338.152 509.107 352.099 638.526C369.524 799.156 460.477 954.422 601.666 1064.34C866.792 1270.84 1231.13 1259.77 1413.81 1039.83C1492.42 945.166 1527.96 821.744 1513.93 692.302C1496.52 531.646 1405.55 376.405 1264.37 266.49C1195.6 212.744 1117.5 172.165 1033.99 146.796Z" fill="url(#paint18_radial)"/>
<path d="M787.382 1215.57C746.43 1203.2 706.76 1186.93 668.918 1166.97C523.391 1090.33 414.044 966.113 360.866 817.164C307.689 668.216 317.564 512.389 388.044 378.372C533.724 101.822 896.762 5.61703 1197.25 163.953C1497.74 322.289 1623.82 675.952 1478.14 952.502L1475.94 951.356L1478.14 952.502C1351.13 1193.44 1059.16 1297.51 787.382 1215.57ZM1077.38 120.026C807.782 38.751 518.325 141.816 392.495 380.706C322.562 513.471 313.024 667.898 365.632 815.542C418.24 963.186 526.798 1086.55 671.235 1162.57C708.792 1182.39 748.166 1198.54 788.814 1210.82C1058.41 1292.1 1347.88 1189.01 1473.7 950.143C1618.14 676.022 1493.05 325.265 1194.97 168.249C1157.41 148.445 1118.03 132.297 1077.38 120.026Z" fill="url(#paint19_radial)"/>
<path d="M755.28 1255.26C430.043 1157.21 245.221 812.861 343.269 487.624C441.318 162.387 785.671 -22.4357 1110.91 75.613C1436.14 173.662 1620.97 518.014 1522.92 843.251C1424.87 1168.49 1080.52 1353.31 755.28 1255.26ZM1109.42 80.546C786.91 -16.6809 445.398 166.704 348.202 489.111C251.007 811.518 434.257 1153.1 756.767 1250.33C1079.28 1347.56 1420.76 1164.27 1517.99 841.764C1615.21 519.253 1431.93 177.773 1109.42 80.546Z" fill="url(#paint20_radial)"/>
</g>
<rect width="1280" height="1031" fill="url(#paint21_linear)" fill-opacity="0.7"/>
<defs>
<radialGradient id="paint0_radial" cx="0" cy="0" r="1" gradientUnits="userSpaceOnUse" gradientTransform="translate(933.094 665.437) rotate(16.7764) scale(271.902)">
<stop stop-color="#212424" stop-opacity="0.7"/>
<stop offset="0.95" stop-color="#B3AEA8" stop-opacity="0.5"/>
<stop offset="1" stop-color="#F3F1E6" stop-opacity="0.2"/>
</radialGradient>
<radialGradient id="paint1_radial" cx="0" cy="0" r="1" gradientUnits="userSpaceOnUse" gradientTransform="translate(98504.7 314427) rotate(16.7764) scale(62469.6 53926)">
<stop stop-color="#212424" stop-opacity="0.7"/>
<stop offset="0.95" stop-color="#B3AEA8" stop-opacity="0.5"/>
<stop offset="1" stop-color="#F3F1E6" stop-opacity="0.2"/>
</radialGradient>
<radialGradient id="paint2_radial" cx="0" cy="0" r="1" gradientUnits="userSpaceOnUse" gradientTransform="translate(95335 332977) rotate(16.7764) scale(65592.8 59752.7)">
<stop stop-color="#212424" stop-opacity="0.7"/>
<stop offset="0.95" stop-color="#B3AEA8" stop-opacity="0.5"/>
<stop offset="1" stop-color="#F3F1E6" stop-opacity="0.2"/>
</radialGradient>
<radialGradient id="paint3_radial" cx="0" cy="0" r="1" gradientUnits="userSpaceOnUse" gradientTransform="translate(89309.1 355851) rotate(16.7764) scale(68513.8 67185)">
<stop stop-color="#212424" stop-opacity="0.7"/>
<stop offset="0.95" stop-color="#B3AEA8" stop-opacity="0.5"/>
<stop offset="1" stop-color="#F3F1E6" stop-opacity="0.2"/>
</radialGradient>
<radialGradient id="paint4_radial" cx="0" cy="0" r="1" gradientUnits="userSpaceOnUse" gradientTransform="translate(81544.8 381925) rotate(16.7764) scale(71532.2 76174)">
<stop stop-color="#212424" stop-opacity="0.7"/>
<stop offset="0.95" stop-color="#B3AEA8" stop-opacity="0.5"/>
<stop offset="1" stop-color="#F3F1E6" stop-opacity="0.2"/>
</radialGradient>
<radialGradient id="paint5_radial" cx="0" cy="0" r="1" gradientUnits="userSpaceOnUse" gradientTransform="translate(73508 409863) rotate(16.7764) scale(75038.4 86533.6)">
<stop stop-color="#212424" stop-opacity="0.7"/>
<stop offset="0.95" stop-color="#B3AEA8" stop-opacity="0.5"/>
<stop offset="1" stop-color="#F3F1E6" stop-opacity="0.2"/>
</radialGradient>
<radialGradient id="paint6_radial" cx="0" cy="0" r="1" gradientUnits="userSpaceOnUse" gradientTransform="translate(66962.6 438079) rotate(16.7764) scale(79541.5 97896.4)">
<stop stop-color="#212424" stop-opacity="0.7"/>
<stop offset="0.95" stop-color="#B3AEA8" stop-opacity="0.5"/>
<stop offset="1" stop-color="#F3F1E6" stop-opacity="0.2"/>
</radialGradient>
<radialGradient id="paint7_radial" cx="0" cy="0" r="1" gradientUnits="userSpaceOnUse" gradientTransform="translate(63822.7 465527) rotate(16.7764) scale(85792.2 109919)">
<stop stop-color="#212424" stop-opacity="0.7"/>
<stop offset="0.95" stop-color="#B3AEA8" stop-opacity="0.5"/>
<stop offset="1" stop-color="#F3F1E6" stop-opacity="0.2"/>
</radialGradient>
<radialGradient id="paint8_radial" cx="0" cy="0" r="1" gradientUnits="userSpaceOnUse" gradientTransform="translate(65468.6 490825) rotate(16.7764) scale(94367.9 122056)">
<stop stop-color="#212424" stop-opacity="0.7"/>
<stop offset="0.95" stop-color="#B3AEA8" stop-opacity="0.5"/>
<stop offset="1" stop-color="#F3F1E6" stop-opacity="0.2"/>
</radialGradient>
<radialGradient id="paint9_radial" cx="0" cy="0" r="1" gradientUnits="userSpaceOnUse" gradientTransform="translate(72595.7 513033) rotate(16.7764) scale(105643 133754)">
<stop stop-color="#212424" stop-opacity="0.7"/>
<stop offset="0.95" stop-color="#B3AEA8" stop-opacity="0.5"/>
<stop offset="1" stop-color="#F3F1E6" stop-opacity="0.2"/>
</radialGradient>
<radialGradient id="paint10_radial" cx="0" cy="0" r="1" gradientUnits="userSpaceOnUse" gradientTransform="translate(84801.4 531762) rotate(16.7764) scale(119618 144671)">
<stop stop-color="#212424" stop-opacity="0.7"/>
<stop offset="0.95" stop-color="#B3AEA8" stop-opacity="0.5"/>
<stop offset="1" stop-color="#F3F1E6" stop-opacity="0.2"/>
</radialGradient>
<radialGradient id="paint11_radial" cx="0" cy="0" r="1" gradientUnits="userSpaceOnUse" gradientTransform="translate(101598 545759) rotate(16.7764) scale(135910 154012)">
<stop stop-color="#212424" stop-opacity="0.7"/>
<stop offset="0.95" stop-color="#B3AEA8" stop-opacity="0.5"/>
<stop offset="1" stop-color="#F3F1E6" stop-opacity="0.2"/>
</radialGradient>
<radialGradient id="paint12_radial" cx="0" cy="0" r="1" gradientUnits="userSpaceOnUse" gradientTransform="translate(121265 555745) rotate(16.7764) scale(153834 161846)">
<stop stop-color="#212424" stop-opacity="0.7"/>
<stop offset="0.95" stop-color="#B3AEA8" stop-opacity="0.5"/>
<stop offset="1" stop-color="#F3F1E6" stop-opacity="0.2"/>
</radialGradient>
<radialGradient id="paint13_radial" cx="0" cy="0" r="1" gradientUnits="userSpaceOnUse" gradientTransform="translate(142181 563056) rotate(16.7764) scale(172820 168622)">
<stop stop-color="#212424" stop-opacity="0.7"/>
<stop offset="0.95" stop-color="#B3AEA8" stop-opacity="0.5"/>
<stop offset="1" stop-color="#F3F1E6" stop-opacity="0.2"/>
</radialGradient>
<radialGradient id="paint14_radial" cx="0" cy="0" r="1" gradientUnits="userSpaceOnUse" gradientTransform="translate(162233 569310) rotate(16.7764) scale(191849 174918)">
<stop stop-color="#212424" stop-opacity="0.7"/>
<stop offset="0.95" stop-color="#B3AEA8" stop-opacity="0.5"/>
<stop offset="1" stop-color="#F3F1E6" stop-opacity="0.2"/>
</radialGradient>
<radialGradient id="paint15_radial" cx="0" cy="0" r="1" gradientUnits="userSpaceOnUse" gradientTransform="translate(179313 577026) rotate(16.7764) scale(210035 181838)">
<stop stop-color="#212424" stop-opacity="0.7"/>
<stop offset="0.95" stop-color="#B3AEA8" stop-opacity="0.5"/>
<stop offset="1" stop-color="#F3F1E6" stop-opacity="0.2"/>
</radialGradient>
<radialGradient id="paint16_radial" cx="0" cy="0" r="1" gradientUnits="userSpaceOnUse" gradientTransform="translate(191576 589477) rotate(16.7764) scale(226893 191034)">
<stop stop-color="#212424" stop-opacity="0.7"/>
<stop offset="0.95" stop-color="#B3AEA8" stop-opacity="0.5"/>
<stop offset="1" stop-color="#F3F1E6" stop-opacity="0.2"/>
</radialGradient>
<radialGradient id="paint17_radial" cx="0" cy="0" r="1" gradientUnits="userSpaceOnUse" gradientTransform="translate(197456 609800) rotate(16.7764) scale(242155 204338)">
<stop stop-color="#212424" stop-opacity="0.7"/>
<stop offset="0.95" stop-color="#B3AEA8" stop-opacity="0.5"/>
<stop offset="1" stop-color="#F3F1E6" stop-opacity="0.2"/>
</radialGradient>
<radialGradient id="paint18_radial" cx="0" cy="0" r="1" gradientUnits="userSpaceOnUse" gradientTransform="translate(196245 639782) rotate(16.7764) scale(255823 223190)">
<stop stop-color="#212424" stop-opacity="0.7"/>
<stop offset="0.95" stop-color="#B3AEA8" stop-opacity="0.5"/>
<stop offset="1" stop-color="#F3F1E6" stop-opacity="0.2"/>
</radialGradient>
<radialGradient id="paint19_radial" cx="0" cy="0" r="1" gradientUnits="userSpaceOnUse" gradientTransform="translate(188395 679360) rotate(16.7764) scale(268264 248333)">
<stop stop-color="#212424" stop-opacity="0.7"/>
<stop offset="0.95" stop-color="#B3AEA8" stop-opacity="0.5"/>
<stop offset="1" stop-color="#F3F1E6" stop-opacity="0.2"/>
</radialGradient>
<radialGradient id="paint20_radial" cx="0" cy="0" r="1" gradientUnits="userSpaceOnUse" gradientTransform="translate(175081 727068) rotate(16.7764) scale(279906)">
<stop stop-color="#212424" stop-opacity="0.7"/>
<stop offset="0.95" stop-color="#B3AEA8" stop-opacity="0.5"/>
<stop offset="1" stop-color="#F3F1E6" stop-opacity="0.2"/>
</radialGradient>
<linearGradient id="paint21_linear" x1="25" y1="450.537" x2="692" y2="450.537" gradientUnits="userSpaceOnUse">
<stop offset="0.557721"/>
<stop offset="0.83958" stop-opacity="0.32"/>
</linearGradient>
</defs>
</svg>
